<?xml version="1.0" encoding="utf-8"?>
<!-- Generator: Adobe Illustrator 20.0.0, SVG Export Plug-In . SVG Version: 6.00 Build 0)  -->
<svg version="1.1"
	 id="Layer_1" xmlns:cc="http://creativecommons.org/ns#" xmlns:dc="http://purl.org/dc/elements/1.1/" xmlns:rdf="http://www.w3.org/1999/02/22-rdf-syntax-ns#"
	 xmlns="http://www.w3.org/2000/svg" xmlns:xlink="http://www.w3.org/1999/xlink" x="0px" y="0px" viewBox="0 0 246 42"
	 style="enable-background:new 0 0 246 42;" xml:space="preserve">
<style type="text/css">
	.st0{fill:url(#SVGID_1_);}
	.st1{fill:url(#SVGID_2_);}
	.st2{opacity:0.38;fill:url(#SVGID_3_);}
	.st3{fill:#FFFFFF;}
	.st4{fill:#A42B31;}
	.st5{fill:#272525;}
</style>
<linearGradient id="SVGID_1_" gradientUnits="userSpaceOnUse" x1="17.5323" y1="34.8918" x2="34.0879" y2="13.1927">
	<stop  offset="0" style="stop-color:#791F22"/>
	<stop  offset="1" style="stop-color:#AD262B"/>
</linearGradient>
<path class="st0" d="M28.1,38.6c-9.7,0-17.6-7.9-17.6-17.6c0-9.7,7.9-17.6,17.6-17.6c9.7,0,17.6,7.9,17.6,17.6
	C45.8,30.7,37.9,38.6,28.1,38.6"/>
<linearGradient id="SVGID_2_" gradientUnits="userSpaceOnUse" x1="8.3833" y1="21" x2="47.8797" y2="21">
	<stop  offset="0" style="stop-color:#791F22"/>
	<stop  offset="1" style="stop-color:#AD262B"/>
</linearGradient>
<path class="st1" d="M28.1,1.3C17.2,1.3,8.4,10.1,8.4,21c0,10.9,8.8,19.7,19.7,19.7c10.9,0,19.7-8.8,19.7-19.7
	C47.9,10.1,39,1.3,28.1,1.3z M28.1,39.5C17.9,39.5,9.6,31.2,9.6,21c0-10.2,8.3-18.5,18.5-18.5S46.6,10.8,46.6,21
	C46.6,31.2,38.4,39.5,28.1,39.5z"/>
<linearGradient id="SVGID_3_" gradientUnits="userSpaceOnUse" x1="27.7034" y1="21.0203" x2="39.1702" y2="9.9821">
	<stop  offset="0" style="stop-color:#FFFFFF;stop-opacity:0"/>
	<stop  offset="1" style="stop-color:#FFFFFF"/>
</linearGradient>
<path class="st2" d="M42.3,24.8c2.9-2.9,1.8-9.9-3.2-14.9c-5-5-12-6.1-14.9-3.2C21.3,9.6,23,16,28,21C32.9,26,39.3,27.7,42.3,24.8"
	/>
<path class="st3" d="M36.9,15.9c1.7,0,2.5,0.8,2.5,2.4c0,0.6-0.1,1.1-0.4,1.5c-0.3,0.4-0.7,0.6-1.3,0.7c0.5,0.1,0.9,0.3,1.2,0.7
	c0.3,0.4,0.4,0.9,0.4,1.6c0,1.6-0.8,2.3-2.5,2.3l-9.7,0l0-9.3L36.9,15.9 M29.5,23.1l6.8,0c0.5,0,0.7-0.2,0.7-0.7
	c0-0.5-0.2-0.8-0.7-0.8l-5.3,0l0-2l5.3,0c0.5,0,0.7-0.3,0.7-0.8c0-0.5-0.2-0.7-0.7-0.7l-6.8,0L29.5,23.1z"/>
<path class="st3" d="M23.2,15.9c1.7,0,2.5,0.8,2.5,2.4c0,0.6-0.1,1.1-0.4,1.5c-0.3,0.4-0.7,0.6-1.3,0.7c0.5,0.1,0.9,0.3,1.2,0.7
	c0.3,0.4,0.4,0.9,0.4,1.6c0,1.6-0.8,2.3-2.5,2.3l-9.7,0l0-9.3L23.2,15.9 M15.7,23.1l6.8,0c0.5,0,0.7-0.2,0.7-0.7
	c0-0.5-0.2-0.8-0.7-0.8l-5.3,0l0-2l5.3,0c0.5,0,0.7-0.3,0.7-0.8c0-0.5-0.2-0.7-0.7-0.7l-6.8,0L15.7,23.1z"/>
<path class="st3" d="M42.6,17.8l-2.2,0l0-1.8l2.2,0L42.6,17.8 M40.3,25.2l0-6.5l2.2,0l0,6.5L40.3,25.2z"/>
<g>
	<g>
		<path class="st4" d="M151.6,3.8h4.6c2.5,0,5,0.9,5,3.7c0,1.8-1,2.9-2.7,3.4v0c1.9,0.2,3.4,1.7,3.4,3.7c0,3.3-3.1,4.2-5.9,4.2h-4.5
			V3.8z M153.4,10.2h2.5c1.7,0,3.4-0.4,3.4-2.5c0-1.9-1.6-2.3-3.3-2.3h-2.7V10.2z M153.4,17.3h3c1.8,0,3.7-0.7,3.7-2.6
			c0-2.1-1.8-2.8-3.6-2.8h-3.1V17.3z"/>
		<path class="st4" d="M171.3,3.8h1.7l6.4,15.2h-2.1l-1.5-3.7h-7.6l-1.6,3.7h-2L171.3,3.8z M172.1,6.1L172.1,6.1l-3.2,7.4h6.2
			L172.1,6.1z"/>
		<path class="st4" d="M182.4,3.8h5.8c3,0,7.4,2,7.4,7.6c0,5.6-4.5,7.6-7.4,7.6h-5.8V3.8z M184.2,17.3h3.4c3.5,0,6.1-1.8,6.1-5.9
			c0-4.2-2.6-5.9-6.1-5.9h-3.4V17.3z"/>
		<path class="st4" d="M212.7,17.9c-1.7,1-3.7,1.4-5.7,1.4c-4.7,0-8.1-3.2-8.1-8c0-4.8,3.6-8,8.2-8c2,0,3.9,0.5,5.4,2l-1.3,1.4
			c-1-1.1-2.6-1.7-4.1-1.7c-3.5,0-6.1,2.6-6.1,6.3c0,3.6,2.5,6.3,6.3,6.3c1.2,0,2.7-0.3,3.8-0.9v-4.6h-3.5v-1.7h5.3V17.9z"/>
		<path class="st4" d="M217.8,3.8h9.5v1.7h-7.7v4.8h7.2v1.7h-7.2v5.4h8.1V19h-9.9V3.8z"/>
		<path class="st4" d="M238.9,6.5c-0.6-1-1.7-1.4-2.8-1.4c-1.6,0-3.2,0.8-3.2,2.5c0,1.4,0.8,2,3.2,2.8c2.4,0.7,4.5,1.5,4.5,4.5
			c0,3-2.6,4.4-5.3,4.4c-1.8,0-3.6-0.6-4.7-2.1l1.5-1.3c0.6,1.1,1.9,1.7,3.2,1.7c1.5,0,3.3-0.9,3.3-2.6c0-1.9-1.3-2.2-4-3.1
			c-2.1-0.7-3.8-1.6-3.8-4.2c0-2.9,2.5-4.4,5.2-4.4c1.7,0,3.1,0.5,4.2,1.8L238.9,6.5z"/>
	</g>
	<g>
		<path class="st5" d="M55.1,28.1h1.2v10.4h-1.2V28.1z"/>
		<path class="st5" d="M64.7,28.1h1.6l6,8.6h0v-8.6h1.2v10.4H72l-6-8.6h0v8.6h-1.2V28.1z"/>
		<path class="st5" d="M88.9,29.3h-3.4v9.2h-1.2v-9.2h-3.4v-1.1h8.1V29.3z"/>
		<path class="st5" d="M96.2,28.1h6.5v1.1h-5.3v3.2h4.9v1.1h-4.9v3.7h5.5v1.1h-6.8V28.1z"/>
		<path class="st5" d="M110.7,28.1h2.6c2,0,4.1,0.3,4.1,2.9c0,1.5-1,2.5-2.6,2.7l2.9,4.8h-1.5l-2.8-4.6H112v4.6h-1.2V28.1z
			 M112,32.7h1.1c1.4,0,3.1,0,3.1-1.7c0-1.5-1.3-1.7-2.5-1.7H112V32.7z"/>
		<path class="st5" d="M125.5,28.1h1.5l6,8.6h0v-8.6h1.2v10.4h-1.5l-6-8.6h0v8.6h-1.2V28.1z"/>
		<path class="st5" d="M146.1,28.1h1.2l4.4,10.4h-1.4l-1.1-2.5H144l-1.1,2.5h-1.4L146.1,28.1z M146.6,29.7L146.6,29.7l-2.2,5.1h4.2
			L146.6,29.7z"/>
		<path class="st5" d="M164.5,29.3h-3.4v9.2h-1.2v-9.2h-3.4v-1.1h8.1V29.3z"/>
		<path class="st5" d="M171.8,28.1h1.2v10.4h-1.2V28.1z"/>
		<path class="st5" d="M180.8,33.3c0-3.1,2.3-5.4,5.4-5.4c3.1,0,5.4,2.3,5.4,5.4c0,3.1-2.3,5.4-5.4,5.4
			C183.1,38.8,180.8,36.4,180.8,33.3z M190.3,33.3c0-2.4-1.7-4.3-4.1-4.3c-2.4,0-4.1,1.9-4.1,4.3c0,2.4,1.7,4.3,4.1,4.3
			C188.7,37.6,190.3,35.7,190.3,33.3z"/>
		<path class="st5" d="M199.5,28.1h1.6l6,8.6h0v-8.6h1.2v10.4h-1.6l-6-8.6h0v8.6h-1.2V28.1z"/>
		<path class="st5" d="M220.1,28.1h1.2l4.4,10.4h-1.4l-1.1-2.5H218l-1.1,2.5h-1.4L220.1,28.1z M220.6,29.7L220.6,29.7l-2.2,5.1h4.2
			L220.6,29.7z"/>
		<path class="st5" d="M232.8,28.1h1.2v9.2h4.7v1.1h-6V28.1z"/>
	</g>
	<g>
		<path class="st5" d="M55.5,3.7h6.8c2.9,0,4.4,1.8,4.4,3.9c0,1-0.4,2.4-2.1,3.2c1,0.4,2.8,1.1,2.8,3.8c0,2.5-1.8,4.6-5.3,4.6h-6.7
			V3.7z M57.6,10.2h3.8c2,0,3.2-0.6,3.2-2.5c0-1.4-0.9-2.3-3.2-2.3h-3.8V10.2z M57.6,17.3h4.5c2.2,0,3.3-1.1,3.3-2.8
			c0-2.2-1.9-2.6-3.6-2.6h-4.1V17.3z"/>
		<path class="st5" d="M83,3.7v10c0,3.2-2,5.8-6.2,5.8c-4.2,0-5.9-2.7-5.9-5.6V3.7h2.1v9.7c0,3.4,2,4.3,3.9,4.3
			c1.9,0,4.1-0.9,4.1-4.2V3.7H83z"/>
		<path class="st5" d="M86.1,3.7h12.6v1.9h-5.2v13.6h-2.1V5.5h-5.2V3.7z"/>
		<path class="st5" d="M100.3,3.7h12.6v1.9h-5.2v13.6h-2.1V5.5h-5.2V3.7z"/>
		<path class="st5" d="M121.8,19.5c-5.8,0-7.5-4.8-7.5-8.1s1.8-8.1,7.5-8.1c5.8,0,7.5,4.8,7.5,8.1S127.5,19.5,121.8,19.5z
			 M121.8,5.1c-3.4,0-5.4,2.6-5.4,6.3s2,6.3,5.4,6.3c3.4,0,5.4-2.6,5.4-6.3S125.1,5.1,121.8,5.1z"/>
		<path class="st5" d="M143.1,3.7h2v15.5h-2.3l-7.9-12.5h0v12.5h-2V3.7h2.5l7.7,12.5h0V3.7z"/>
	</g>
</g>
</svg>
