<?xml version="1.0" encoding="utf-8"?>
<!-- Generator: Adobe Illustrator 20.0.0, SVG Export Plug-In . SVG Version: 6.00 Build 0)  -->
<svg version="1.1"
	 id="Layer_1" xmlns:cc="http://creativecommons.org/ns#" xmlns:dc="http://purl.org/dc/elements/1.1/" xmlns:rdf="http://www.w3.org/1999/02/22-rdf-syntax-ns#"
	 xmlns="http://www.w3.org/2000/svg" xmlns:xlink="http://www.w3.org/1999/xlink" x="0px" y="0px" viewBox="0 0 280.8 88.3"
	 style="enable-background:new 0 0 280.8 88.3;" xml:space="preserve">
<style type="text/css">
	.st0{fill:url(#SVGID_1_);}
	.st1{fill:url(#SVGID_2_);}
	.st2{opacity:0.38;fill:url(#SVGID_3_);enable-background:new    ;}
	.st3{fill:#FFFFFF;}
	.st4{fill:#A42B31;}
	.st5{fill:#272525;}
</style>
<g>
	
		<linearGradient id="SVGID_1_" gradientUnits="userSpaceOnUse" x1="22.1667" y1="853.5311" x2="54.4973" y2="811.1559" gradientTransform="matrix(1 0 0 1 0 -782.22)">
		<stop  offset="0" style="stop-color:#791F22"/>
		<stop  offset="1" style="stop-color:#AD262B"/>
	</linearGradient>
	<path class="st0" d="M42.8,78.5c-19,0-34.4-15.4-34.4-34.4S23.9,9.8,42.8,9.8s34.4,15.4,34.4,34.4C77.3,63.1,61.9,78.5,42.8,78.5"
		/>
	
		<linearGradient id="SVGID_2_" gradientUnits="userSpaceOnUse" x1="4.3521" y1="826.3901" x2="81.4826" y2="826.3901" gradientTransform="matrix(1 0 0 1 0 -782.22)">
		<stop  offset="0" style="stop-color:#791F22"/>
		<stop  offset="1" style="stop-color:#AD262B"/>
	</linearGradient>
	<path class="st1" d="M42.8,5.7C21.5,5.7,4.4,22.9,4.4,44.2s17.2,38.5,38.5,38.5s38.5-17.2,38.5-38.5C81.4,22.9,64.1,5.7,42.8,5.7z
		 M42.8,80.3c-19.9,0-36.2-16.2-36.2-36.2S22.9,8,42.8,8S79,24.3,79,44.2S62.9,80.3,42.8,80.3z"/>
	
		<linearGradient id="SVGID_3_" gradientUnits="userSpaceOnUse" x1="42.0571" y1="826.4803" x2="64.4501" y2="804.9244" gradientTransform="matrix(1 0 0 1 0 -782.22)">
		<stop  offset="0" style="stop-color:#FFFFFF;stop-opacity:0"/>
		<stop  offset="1" style="stop-color:#FFFFFF"/>
	</linearGradient>
	<path class="st2" d="M70.5,51.5c5.7-5.7,3.5-19.4-6.3-29.1s-23.5-11.9-29.1-6.3s-2.3,18.1,7.4,28C52.1,53.9,64.7,57.3,70.5,51.5"/>
	<path class="st3" d="M60,34.2c3.3,0,4.9,1.5,4.9,4.6c0,1.2-0.1,2.2-0.8,2.9c-0.5,0.8-1.4,1.2-2.6,1.4c1,0.1,1.8,0.5,2.3,1.4
		c0.5,0.8,0.8,1.8,0.8,3.1c0,3.1-1.5,4.5-4.9,4.5h-19V33.9L60,34.2 M45.6,48.3h13.2c1,0,1.4-0.4,1.4-1.4c0-1-0.4-1.5-1.4-1.5H48.4
		v-4h10.4c1,0,1.4-0.5,1.4-1.5c0-1-0.4-1.4-1.4-1.4H45.6V48.3z"/>
	<path class="st3" d="M33.1,34.2c3.3,0,4.9,1.5,4.9,4.6c0,1.2-0.1,2.2-0.8,2.9c-0.7,0.7-1.4,1.2-2.6,1.4c1,0.1,1.8,0.5,2.3,1.4
		s0.8,1.8,0.8,3.1c0,3.1-1.5,4.5-4.9,4.5H14V33.9L33.1,34.2 M18.5,48.3h13.2c1,0,1.4-0.4,1.4-1.4c0-1-0.4-1.5-1.4-1.5H21.4v-4h10.4
		c1,0,1.4-0.5,1.4-1.5c0-1-0.4-1.4-1.4-1.4H18.5C18.5,38.6,18.5,48.3,18.5,48.3z"/>
	<path class="st3" d="M71.1,37.9h-4.2v-3.5h4.2V37.9 M66.6,52.4V39.7h4.2v12.7H66.6z"/>
</g>
<g>
	<g>
		<path class="st4" d="M184.2,27h4.6c2.5,0,5,0.9,5,3.7c0,1.8-1,2.9-2.7,3.4l0,0c1.9,0.2,3.4,1.7,3.4,3.7c0,3.3-3.1,4.2-5.9,4.2
			h-4.5L184.2,27L184.2,27z M186,33.4h2.5c1.7,0,3.4-0.4,3.4-2.5c0-1.9-1.6-2.3-3.3-2.3h-2.7v4.8H186z M186,40.5h3
			c1.8,0,3.7-0.7,3.7-2.6c0-2.1-1.8-2.8-3.6-2.8H186L186,40.5L186,40.5z"/>
		<path class="st4" d="M203.9,27h1.7l6.4,15.2h-2.1l-1.5-3.7h-7.6l-1.6,3.7h-2L203.9,27z M204.7,29.3L204.7,29.3l-3.2,7.4h6.2
			L204.7,29.3z"/>
		<path class="st4" d="M215,27h5.8c3,0,7.4,2,7.4,7.6s-4.5,7.6-7.4,7.6H215V27z M216.8,40.5h3.4c3.5,0,6.1-1.8,6.1-5.9
			c0-4.2-2.6-5.9-6.1-5.9h-3.4V40.5z"/>
		<path class="st4" d="M245.3,41.1c-1.7,1-3.7,1.4-5.7,1.4c-4.7,0-8.1-3.2-8.1-8s3.6-8,8.2-8c2,0,3.9,0.5,5.4,2l-1.3,1.4
			c-1-1.1-2.6-1.7-4.1-1.7c-3.5,0-6.1,2.6-6.1,6.3c0,3.6,2.5,6.3,6.3,6.3c1.2,0,2.7-0.3,3.8-0.9v-4.6h-3.5v-1.7h5.3v7.5H245.3z"/>
		<path class="st4" d="M250.4,27h9.5v1.7h-7.7v4.8h7.2v1.7h-7.2v5.4h8.1v1.6h-9.9V27L250.4,27z"/>
		<path class="st4" d="M271.5,29.7c-0.6-1-1.7-1.4-2.8-1.4c-1.6,0-3.2,0.8-3.2,2.5c0,1.4,0.8,2,3.2,2.8c2.4,0.7,4.5,1.5,4.5,4.5
			s-2.6,4.4-5.3,4.4c-1.8,0-3.6-0.6-4.7-2.1l1.5-1.3c0.6,1.1,1.9,1.7,3.2,1.7c1.5,0,3.3-0.9,3.3-2.6c0-1.9-1.3-2.2-4-3.1
			c-2.1-0.7-3.8-1.6-3.8-4.2c0-2.9,2.5-4.4,5.2-4.4c1.7,0,3.1,0.5,4.2,1.8L271.5,29.7z"/>
	</g>
	<g>
		<path class="st5" d="M87.7,51.3h1.2v10.4h-1.2V51.3z"/>
		<path class="st5" d="M97.3,51.3h1.6l6,8.6l0,0v-8.6h1.2v10.4h-1.5l-6-8.6l0,0v8.6h-1.2L97.3,51.3L97.3,51.3z"/>
		<path class="st5" d="M121.5,52.5h-3.4v9.2h-1.2v-9.2h-3.4v-1.1h8.1L121.5,52.5L121.5,52.5z"/>
		<path class="st5" d="M128.8,51.3h6.5v1.1H130v3.2h4.9v1.1H130v3.7h5.5v1.1h-6.8V51.3H128.8z"/>
		<path class="st5" d="M143.3,51.3h2.6c2,0,4.1,0.3,4.1,2.9c0,1.5-1,2.5-2.6,2.7l2.9,4.8h-1.5l-2.8-4.6h-1.4v4.6h-1.2V51.3H143.3z
			 M144.6,55.9h1.1c1.4,0,3.1,0,3.1-1.7c0-1.5-1.3-1.7-2.5-1.7h-1.7V55.9z"/>
		<path class="st5" d="M158.1,51.3h1.5l6,8.6l0,0v-8.6h1.2v10.4h-1.5l-6-8.6l0,0v8.6h-1.2V51.3z"/>
		<path class="st5" d="M178.7,51.3h1.2l4.4,10.4h-1.4l-1.1-2.5h-5.2l-1.1,2.5h-1.4L178.7,51.3z M179.2,52.9L179.2,52.9L177,58h4.2
			L179.2,52.9z"/>
		<path class="st5" d="M197.1,52.5h-3.4v9.2h-1.2v-9.2h-3.4v-1.1h8.1v1.1H197.1z"/>
		<path class="st5" d="M204.4,51.3h1.2v10.4h-1.2V51.3z"/>
		<path class="st5" d="M213.4,56.5c0-3.1,2.3-5.4,5.4-5.4c3.1,0,5.4,2.3,5.4,5.4s-2.3,5.4-5.4,5.4C215.7,62,213.4,59.6,213.4,56.5z
			 M222.9,56.5c0-2.4-1.7-4.3-4.1-4.3c-2.4,0-4.1,1.9-4.1,4.3c0,2.4,1.7,4.3,4.1,4.3C221.3,60.8,222.9,58.9,222.9,56.5z"/>
		<path class="st5" d="M232.1,51.3h1.6l6,8.6l0,0v-8.6h1.2v10.4h-1.6l-6-8.6l0,0v8.6h-1.2V51.3z"/>
		<path class="st5" d="M252.7,51.3h1.2l4.4,10.4h-1.4l-1.1-2.5h-5.2l-1.1,2.5h-1.4L252.7,51.3z M253.2,52.9L253.2,52.9L251,58h4.2
			L253.2,52.9z"/>
		<path class="st5" d="M265.4,51.3h1.2v9.2h4.7v1.1h-6V51.3H265.4z"/>
	</g>
	<g>
		<path class="st5" d="M88.1,26.9h6.8c2.9,0,4.4,1.8,4.4,3.9c0,1-0.4,2.4-2.1,3.2c1,0.4,2.8,1.1,2.8,3.8c0,2.5-1.8,4.6-5.3,4.6H88
			L88.1,26.9L88.1,26.9z M90.2,33.4H94c2,0,3.2-0.6,3.2-2.5c0-1.4-0.9-2.3-3.2-2.3h-3.8V33.4z M90.2,40.5h4.5c2.2,0,3.3-1.1,3.3-2.8
			c0-2.2-1.9-2.6-3.6-2.6h-4.1v5.4H90.2z"/>
		<path class="st5" d="M115.6,26.9v10c0,3.2-2,5.8-6.2,5.8s-5.9-2.7-5.9-5.6V26.9h2.1v9.7c0,3.4,2,4.3,3.9,4.3s4.1-0.9,4.1-4.2v-9.8
			C113.6,26.9,115.6,26.9,115.6,26.9z"/>
		<path class="st5" d="M118.7,26.9h12.6v1.9h-5.2v13.6H124V28.7h-5.2v-1.8C118.8,26.9,118.7,26.9,118.7,26.9z"/>
		<path class="st5" d="M132.9,26.9h12.6v1.9h-5.2v13.6h-2.1V28.7H133v-1.8C133,26.9,132.9,26.9,132.9,26.9z"/>
		<path class="st5" d="M154.4,42.7c-5.8,0-7.5-4.8-7.5-8.1s1.8-8.1,7.5-8.1c5.8,0,7.5,4.8,7.5,8.1S160.1,42.7,154.4,42.7z
			 M154.4,28.3c-3.4,0-5.4,2.6-5.4,6.3c0,3.7,2,6.3,5.4,6.3s5.4-2.6,5.4-6.3C159.8,30.9,157.7,28.3,154.4,28.3z"/>
		<path class="st5" d="M175.7,26.9h2v15.5h-2.3l-7.9-12.5l0,0v12.5h-2V26.9h2.5l7.7,12.5l0,0V26.9z"/>
	</g>
</g>
</svg>
