<?xml version="1.0" encoding="utf-8"?>
<!-- Generator: Adobe Illustrator 19.2.1, SVG Export Plug-In . SVG Version: 6.00 Build 0)  -->
<svg version="1.1" xmlns="http://www.w3.org/2000/svg" xmlns:xlink="http://www.w3.org/1999/xlink" x="0px" y="0px"
	 viewBox="0 0 792 612" style="enable-background:new 0 0 792 612;" xml:space="preserve">
<style type="text/css">
	.st0{display:none;}
	.st1{display:inline;}
	.st2{fill:#231F20;}
	.st3{fill:#C1272D;}
	.st4{fill:url(#SVGID_1_);}
	.st5{fill:url(#SVGID_2_);}
	.st6{fill:url(#SVGID_3_);}
	.st7{fill:#FFFFFF;}
	.st8{fill:url(#SVGID_4_);}
	.st9{fill:#6D6E71;}
	.st10{fill:url(#SVGID_5_);}
	.st11{fill:url(#SVGID_6_);}
	.st12{fill:#841719;}
	.st13{fill:#9C9EA1;}
</style>
<g id="Layer_1" xmlns:cc="http://creativecommons.org/ns#" xmlns:dc="http://purl.org/dc/elements/1.1/" xmlns:rdf="http://www.w3.org/1999/02/22-rdf-syntax-ns#" class="st0">
	<g class="st1">
		<g transform="matrix(1.25,0,0,-1.25,0,320)">
			<g transform="translate(10.046 31.272)">
				<path class="st2" d="M111-162.5h4.5v31.2h0.1l21.8-31.2h5.6v37.6h-4.5v-31.2h-0.1L116.6-125H111L111-162.5L111-162.5z
					 M151.1-162.5h5l3.9,9.2h18.8l3.8-9.2h5.2l-16,37.6h-4.2L151.1-162.5z M177.1-149.2h-15.3l7.8,18.5h0.1L177.1-149.2z M196-162.5
					h4.5v31.5h0.1l13.5-31.5h2.7l13.5,31.5h0.1v-31.5h4.5v37.6h-6.5l-12.8-29.5h-0.1L202.6-125H196L196-162.5L196-162.5z
					 M247.3-162.5h24.6v4.1h-20.1v13.4h17.9v4.1h-17.9v11.8h19.2v4.1h-23.6L247.3-162.5L247.3-162.5z"/>
			</g>
			<g transform="translate(113.05 31.272)">
				<path class="st3" d="M178.9-162.5h11.2c7,0,14.6,2.2,14.6,10.5c0,4.9-3.7,8.8-8.5,9.2v0.1c4,1.2,6.6,4.1,6.6,8.5
					c0,6.9-6.3,9.2-12.5,9.2h-11.5L178.9-162.5L178.9-162.5z M183.4-129.1h6.6c4,0,8.1-1.1,8.1-5.7c0-5.2-4.4-6.1-8.5-6.1h-6.2
					L183.4-129.1L183.4-129.1z M183.4-145h7.6c4.5,0,9-1.6,9-6.8c0-4.8-4.7-6.5-9.1-6.5h-7.5L183.4-145L183.4-145z M211.2-162.5h5
					l3.9,9.2h18.8l3.8-9.2h5.2l-16,37.6h-4.2L211.2-162.5z M237.2-149.2h-15.3l7.8,18.5h0.1L237.2-149.2z M255.4-162.5h14.4
					c7.4,0,18.4,4.9,18.4,18.8c0,13.9-11,18.8-18.4,18.8h-14.4V-162.5z M259.9-129.1h8.5c8.6,0,15.1-4.4,15.1-14.7
					c0-10.3-6.5-14.6-15.1-14.6h-8.5V-129.1z M330.5-141.5h-13.1v-4.1h8.7v-11.5c-2.8-1.4-6.3-2.2-9.3-2.2
					c-9.2,0-15.6,6.6-15.6,15.6c0,9.1,6.5,15.6,15.1,15.6c3.8,0,7.7-1.5,10.2-4.3l3.3,3.5c-3.6,3.6-8.3,4.9-13.3,4.9
					c-11.3,0-20.2-7.9-20.2-19.8c0-11.8,8.4-19.7,20.1-19.7c4.9,0,9.8,1.1,14.1,3.5L330.5-141.5L330.5-141.5z M343.1-162.5h24.6v4.1
					h-20.1v13.4h17.9v4.1h-17.9v11.8h19.2v4.1h-23.6L343.1-162.5L343.1-162.5z M399.2-128.4c-2.8,3.2-6.3,4.4-10.5,4.4
					c-6.6,0-12.8-3.6-12.8-10.8c0-6.3,4-8.6,9.3-10.4c6.7-2.2,9.8-3,9.8-7.6c0-4.3-4.4-6.5-8.2-6.5c-3.2,0-6.4,1.4-8,4.2l-3.8-3.1
					c2.5-3.8,7.2-5.2,11.6-5.2c6.8,0,13.2,3.5,13.2,11c0,7.4-5.4,9.3-11.3,11.2c-6,1.9-7.9,3.4-7.9,6.9c0,4.5,4.1,6.3,8,6.3
					c2.7,0,5.4-1.1,6.8-3.5L399.2-128.4L399.2-128.4L399.2-128.4z"/>
			</g>
			<path class="st2" d="M120.7-177.9h2.6v22h-2.6V-177.9z M141.2-177.9h2.6v18.3h0.1l12.7-18.3h3.3v22h-2.6v-18.3h-0.1l-12.7,18.3
				h-3.3V-177.9z M192.5-155.9h-17.1v-2.4h7.3v-19.6h2.6v19.6h7.3V-155.9z M208-177.9h14.4v2.4h-11.8v7.8h10.5v2.4h-10.5v6.9h11.2
				v2.4H208V-177.9L208-177.9z M238.9-177.9h2.6v9.9h3.4l6-9.9h3.2l-6.2,10.1c3.4,0.5,5.5,2.6,5.5,5.8c0,5.4-4.5,6.1-8.8,6.1h-5.6
				L238.9-177.9L238.9-177.9z M241.5-158.3h3.7c2.5,0,5.3-0.5,5.3-3.6c0-3.6-3.8-3.6-6.6-3.6h-2.3V-158.3z M270.3-177.9h2.6v18.3
				h0.1l12.7-18.3h3.3v22h-2.6v-18.3h-0.1l-12.7,18.3h-3.3V-177.9z M304.3-177.9h2.9l2.3,5.4h11l2.2-5.4h3l-9.3,22H314L304.3-177.9
				L304.3-177.9z M319.6-170h-9l4.6,10.8h0.1L319.6-170z M353.1-155.9h-17.1v-2.4h7.3v-19.6h2.6v19.6h7.3L353.1-155.9L353.1-155.9z
				 M368.6-177.9h2.6v22h-2.6V-177.9z M399.3-178.4c6.7,0,11.5,4.9,11.5,11.5c0,6.6-4.8,11.6-11.5,11.6s-11.5-4.9-11.5-11.6
				C387.8-173.5,392.6-178.4,399.3-178.4 M399.3-176c-5.1,0-8.7,4.1-8.7,9.1c0,5.1,3.5,9.1,8.7,9.1c5.2,0,8.7-4.1,8.7-9.1
				C408-171.9,404.5-176,399.3-176 M427.4-177.9h2.6v18.3h0.1l12.7-18.3h3.3v22h-2.6v-18.3h-0.1l-12.7,18.3h-3.3L427.4-177.9
				L427.4-177.9z M461.5-177.9h2.9l2.3,5.4h11l2.2-5.4h3l-9.3,22h-2.4L461.5-177.9z M476.7-170h-9l4.6,10.8h0.1L476.7-170z
				 M498.3-177.9H511v2.4h-10.1v19.6h-2.6V-177.9z"/>
			
				<linearGradient id="SVGID_1_" gradientUnits="userSpaceOnUse" x1="72.687" y1="-493.5591" x2="73.5547" y2="-493.5591" gradientTransform="matrix(-214.8335 -236.5882 236.5882 -214.8335 132681.2656 -88522.2578)">
				<stop  offset="0" style="stop-color:#FFFFFF"/>
				<stop  offset="1" style="stop-color:#231F20"/>
			</linearGradient>
			<path class="st4" d="M140.8,213.2c-17.7-22.4-4.3-54.2,30.2-81.3c-20.8,22.9-26.7,47-12.5,65c16.6,20.9,57.6,28,102.5,21.6
				l10.6,5.1l7.8,3.1c-23.4,6.9-46.8,10.4-67.9,10.4C179.7,237,153.4,229.1,140.8,213.2"/>
			
				<linearGradient id="SVGID_2_" gradientUnits="userSpaceOnUse" x1="72.1753" y1="-493.593" x2="73.0431" y2="-493.593" gradientTransform="matrix(381.2448 362.2992 -362.2992 381.2448 -206125.3281 162036.0313)">
				<stop  offset="0" style="stop-color:#881518"/>
				<stop  offset="0.5" style="stop-color:#C1272D"/>
				<stop  offset="1" style="stop-color:#CE181F"/>
			</linearGradient>
			<path class="st5" d="M185.2,99.9C185.2,26,245.1-33.9,319-33.9c73.9,0,133.8,59.9,133.8,133.8c0,73.9-59.9,133.8-133.8,133.8
				C245.1,233.8,185.2,173.9,185.2,99.9"/>
			
				<linearGradient id="SVGID_3_" gradientUnits="userSpaceOnUse" x1="71.8698" y1="-493.57" x2="72.7376" y2="-493.57" gradientTransform="matrix(152.0199 151.721 -151.721 152.0199 -85490.0859 64231.5039)">
				<stop  offset="0" style="stop-color:#C6262C"/>
				<stop  offset="0.5" style="stop-color:#DF917A"/>
				<stop  offset="1" style="stop-color:#FFFFFF"/>
			</linearGradient>
			<path class="st6" d="M291.9,211.8c-22.1-22-9.3-70.6,28.6-108.6c37.9-37.9,86.5-50.8,108.5-28.8c22.1,22,13.5,74.9-24.3,112.9
				c-24.2,24.2-54.4,36.5-78.9,36.5C311.9,223.7,299.9,219.8,291.9,211.8"/>
			<g transform="translate(120.96 151.25)">
				<path class="st7" d="M184.1-83.4l-17.8,0c-9.5,13.3-18.8,24.2-28.1,32.7c-9.2,8.4-18.3,14.4-27.3,18c-0.7,0.3-1.4,0.5-2.1,0.8
					c-0.8,0.3-1.6,0.6-2.5,0.9c0.2-2.5,0.3-4.2,0.3-5l0-47.3l-16.4,0l0.1,70.5l14.5,0c5.5-1.8,11-4.2,16.3-7.1
					c5.4-2.9,10.6-6.2,15.6-9.9c5.1-3.7,9.9-7.7,14.7-12.1c4.7-4.4,9.2-8.9,13.5-13.7l3-3.4c-0.2,2-0.3,3.6-0.3,4.6l0,41.4l16.5,0
					L184.1-83.4"/>
			</g>
			<g transform="translate(169.64 193.67)">
				<path class="st7" d="M216.3-55.4c12.6,0,18.9-6,18.9-17.9c0-4.8-1.1-8.6-3.3-11.4c-2.2-2.8-5.4-4.6-9.6-5.3
					c4-0.8,7.2-2.6,9.5-5.6c2.3-3,3.4-7.1,3.4-12.4c0-11.9-6.3-17.8-19-17.8l-73.2,0.1l0.1,70.5L216.3-55.4 M159.8-109.4l51.9-0.1
					c3.7,0,5.6,1.8,5.6,5.3c0,4-1.9,6.1-5.6,6.1l-39.9,0l0,14.9l39.9,0c3.7,0,5.6,2,5.6,6.1c0,3.5-1.9,5.3-5.6,5.3l-51.9,0.1
					L159.8-109.4z"/>
			</g>
			<g transform="translate(195.29 185.26)">
				<path class="st7" d="M233.2-60.9l-16.8,0l0,13.9l16.8,0L233.2-60.9 M216.3-117.5l0,49.2l16.8,0l0-49.2L216.3-117.5z"/>
			</g>
			
				<linearGradient id="SVGID_4_" gradientUnits="userSpaceOnUse" x1="72.6868" y1="-493.6791" x2="73.5544" y2="-493.6791" gradientTransform="matrix(-214.7499 -236.4956 236.4956 -214.7499 132846.8438 -88685.0547)">
				<stop  offset="0" style="stop-color:#FFFFFF"/>
				<stop  offset="1" style="stop-color:#231F20"/>
			</linearGradient>
			<path class="st8" d="M484.3,21.3c-16.7-37.7-92.3-40.7-168.9-6.8c-24,10.6-45.3,23.6-62.6,37.6c19.7-20.9,48.5-41.1,82.9-56.3
				c76.6-33.9,152.3-30.8,168.9,6.8c11.4,25.9-7.9,61.3-46,92C482.8,68.9,493.5,42,484.3,21.3"/>
		</g>
		<g>
			<path class="st9" d="M168.7,575.1h3.5l12,28.1h-4.4l-2.8-6.9h-13.4l-2.8,6.9h-4.4L168.7,575.1z M175.5,593l-5.2-12.9h-0.1
				l-5.3,12.9H175.5z"/>
			<path class="st9" d="M224.5,575.1v17.2c0,3.5,1.7,8,7.1,8c5.3,0,7.1-4.5,7.1-8v-17.2h3.8V593c0,6.5-4.7,11-10.9,11
				c-6.2,0-10.9-4.5-10.9-11v-17.8H224.5z"/>
			<path class="st9" d="M283.3,597.4c1.4,2.1,3.7,3,6,3c2.5,0,5.6-1.6,5.6-4.7c0-6.5-13.9-2.5-13.9-13.4c0-3.3,2.8-7.9,9.5-7.9
				c3.1,0,6,0.6,8.1,3.2l-3.1,2.8c-1-1.5-2.8-2.5-5-2.5c-4.2,0-5.5,2.5-5.5,4.3c0,7.1,13.9,2.9,13.9,13c0,5.4-4.4,8.7-9.8,8.7
				c-3.6,0-7.1-1.2-9-3.9L283.3,597.4z"/>
			<path class="st9" d="M343.8,578.7h-9.1v-3.6h21.9v3.6h-9.1v24.5h-3.8L343.8,578.7L343.8,578.7z"/>
			<path class="st9" d="M394.1,575.1h9.9c7.2,0,9,4.3,9,7.9c0,3.6-2.7,7-6.9,7.4l8,12.8h-4.8l-7.1-12.4h-4.3v12.4h-3.8V575.1z
				 M397.9,587.5h5c3,0,6-0.7,6-4.5s-3-4.5-6-4.5h-5V587.5z"/>
			<path class="st9" d="M460.5,575.1h3.5l12,28.1h-4.4l-2.8-6.9h-13.4l-2.8,6.9h-4.4L460.5,575.1z M467.4,593l-5.2-12.9h-0.1
				l-5.3,12.9H467.4z"/>
			<path class="st9" d="M513,575.1h3.8v24.5h12.9v3.6H513L513,575.1L513,575.1z"/>
			<path class="st9" d="M567,575.1h3.8v28.1H567V575.1z"/>
			<path class="st9" d="M620.2,575.1h3.5l12,28.1h-4.4l-2.8-6.9h-13.4l-2.8,6.9h-4.4L620.2,575.1z M627.1,593l-5.2-12.9h-0.1
				l-5.3,12.9H627.1z"/>
		</g>
	</g>
</g>
<g id="Layer_2">
	<g>
		<polygon class="st2" points="402.4,203.1 424.4,138.2 387,88.1 239,135 239,533 518.5,533 518.5,219.3 467.3,181.1 		"/>
		
			<radialGradient id="SVGID_5_" cx="497.9433" cy="403.3846" r="261.389" gradientTransform="matrix(0.7106 0 0 0.7106 24.8886 20.8271)" gradientUnits="userSpaceOnUse">
			<stop  offset="0" style="stop-color:#851417"/>
			<stop  offset="1" style="stop-color:#C0272D"/>
		</radialGradient>
		<polygon class="st10" points="402.4,200.1 424.4,135.1 387,85 239,132 239,529.9 518.5,529.9 518.5,216.2 467.3,178 		"/>
		<g>
			<linearGradient id="SVGID_6_" gradientUnits="userSpaceOnUse" x1="382.7725" y1="122.1271" x2="577.8081" y2="122.1271">
				<stop  offset="6.060610e-003" style="stop-color:#C0272D"/>
				<stop  offset="0.1697" style="stop-color:#C0272D"/>
				<stop  offset="0.2727" style="stop-color:#851417"/>
				<stop  offset="0.3455" style="stop-color:#851417"/>
				<stop  offset="0.4242" style="stop-color:#851417"/>
				<stop  offset="0.5152" style="stop-color:#C0272D"/>
				<stop  offset="0.5734" style="stop-color:#C73F44"/>
				<stop  offset="0.6963" style="stop-color:#D97B7F"/>
				<stop  offset="0.8725" style="stop-color:#F5DCDD"/>
				<stop  offset="0.9333" style="stop-color:#FFFFFF"/>
				<stop  offset="1" style="stop-color:#FFFFFF"/>
			</linearGradient>
			<path class="st11" d="M522.2,219.6c-0.1,0-0.2,0-0.3-0.1l-54.7-40.8l-64.7,21.9c-0.2,0.1-0.4,0-0.6-0.1c-0.1-0.1-0.2-0.4-0.1-0.6
				l21.9-64.7l-40.8-54.7c-0.1-0.2-0.1-0.4,0-0.6c0.1-0.2,0.3-0.3,0.5-0.3l68.3,0.9L491,24.8c0.1-0.2,0.3-0.3,0.5-0.2
				c0.2,0,0.4,0.2,0.4,0.4l20.3,65.2l65.2,20.3c0.2,0.1,0.3,0.2,0.4,0.4c0,0.2-0.1,0.4-0.2,0.5l-55.7,39.4l0.9,68.3
				c0,0.2-0.1,0.4-0.3,0.5C522.3,219.6,522.3,219.6,522.2,219.6z M467.2,177.6c0.1,0,0.2,0,0.3,0.1l54.1,40.4l-0.9-67.5
				c0-0.2,0.1-0.3,0.2-0.4l55.1-39l-64.4-20c-0.2-0.1-0.3-0.2-0.4-0.4l-20-64.4l-39,55.1c-0.1,0.1-0.3,0.2-0.4,0.2c0,0,0,0,0,0
				l-67.5-0.9l40.3,54.1c0.1,0.1,0.1,0.3,0.1,0.5l-21.7,63.9l63.9-21.7C467.1,177.6,467.2,177.6,467.2,177.6z"/>
		</g>
		<g>
			<path class="st7" d="M276,393.9v-71.3c0-23.2,15.3-39.1,38-39.1s38,15.8,38,39.1v71.3h-27v-37.8h-16.9v-24.5H325v-10.2
				c0-8.1-4.3-13.3-11-13.3c-6.7,0-11,5.3-11,13.3v72.5H276z"/>
			<path class="st7" d="M369,393.9v-70.2c0-25.7,15.3-40.1,38.6-40.1c20.1,0,36.7,14.9,36.7,36.6c0,22.6-13.8,38.1-37,38.1h-6.8
				v-25.1c10.4,0,16.9-1.5,16.9-13c0-6-4.2-11.5-11.3-11.5c-6.2,0-10.1,4.3-10.1,10.8v74.4H369z"/>
			<path class="st7" d="M469.2,283.5c7.9,0,14.1,6,14.1,14.1s-6.2,14.1-14.1,14.1s-14.1-6-14.1-14.1S461.3,283.5,469.2,283.5z
				 M481.6,393.9h-24.8v-75.3h24.8V393.9z"/>
		</g>
		<g>
			<path class="st2" d="M241.7,551.8h1.9l6.7,15.7h-2.5l-1.6-3.9h-7.5l-1.6,3.9h-2.5L241.7,551.8z M245.5,561.8l-2.9-7.2h0l-3,7.2
				H245.5z"/>
			<path class="st2" d="M256.6,551.8h2.2l3.5,12.6h0l3.7-12.6h2.4l3.7,12.6h0l3.5-12.6h2.2l-4.6,15.7h-2.2l-3.8-12.9h0l-3.8,12.9
				h-2.2L256.6,551.8z"/>
			<path class="st2" d="M291,551.8h1.9l6.7,15.7h-2.5l-1.6-3.9h-7.5l-1.6,3.9h-2.5L291,551.8z M294.8,561.8l-2.9-7.2h0l-3,7.2H294.8
				z"/>
			<path class="st2" d="M308.4,551.8h5.5c4,0,5,2.4,5,4.4c0,2-1.5,3.9-3.9,4.2l4.5,7.2h-2.7l-4-6.9h-2.4v6.9h-2.1V551.8z
				 M310.5,558.7h2.8c1.7,0,3.4-0.4,3.4-2.5c0-2.1-1.7-2.5-3.4-2.5h-2.8V558.7z"/>
			<path class="st2" d="M328.3,551.8h5.5c6.6,0,8.3,5,8.3,7.9c0,4-3,7.9-8.6,7.9h-5.1V551.8z M330.4,565.5h2.7c3.6,0,6.7-2,6.7-5.9
				c0-2-1-5.9-6.2-5.9h-3.2V565.5z"/>
			<path class="st2" d="M352.3,564.2c0.8,1.2,2.1,1.7,3.3,1.7c1.4,0,3.1-0.9,3.1-2.6c0-3.6-7.8-1.4-7.8-7.5c0-1.8,1.6-4.4,5.3-4.4
				c1.7,0,3.4,0.4,4.5,1.8l-1.7,1.6c-0.5-0.8-1.6-1.4-2.8-1.4c-2.4,0-3.1,1.4-3.1,2.4c0,4,7.8,1.6,7.8,7.3c0,3-2.4,4.9-5.5,4.9
				c-2,0-4-0.7-5-2.2L352.3,564.2z"/>
			<path class="st12" d="M383.7,551.8h5.5c4,0,5,2.4,5,4.4c0,2-1,4.4-5,4.4h-3.4v6.9h-2.1V551.8z M385.8,558.7h2.8
				c1.7,0,3.4-0.4,3.4-2.5c0-2.1-1.7-2.5-3.4-2.5h-2.8V558.7z"/>
			<path class="st12" d="M403.5,551.8h2.1v13.7h7.2v2h-9.4V551.8z"/>
			<path class="st12" d="M426.7,551.8h1.9l6.7,15.7h-2.5l-1.6-3.9h-7.5l-1.6,3.9h-2.5L426.7,551.8z M430.5,561.8l-2.9-7.2h0l-3,7.2
				H430.5z"/>
			<path class="st12" d="M460.3,567.5h-9.1c-4.5,0-8.2-3.4-8.2-8c0-4.6,3.5-8.1,8.1-8.1c4.4,0,8,3.4,8,7.9c0,2.7-1.3,5.3-3.6,6.4v0
				h4.7V567.5z M457,559.3c0-3.3-2.5-6-5.8-6c-3.3,0-5.8,2.6-5.8,5.9c0,3.4,2.4,6.2,5.8,6.2C454.6,565.5,457,562.8,457,559.3z"/>
			<path class="st12" d="M471.1,551.8v9.6c0,2,1,4.5,4,4.5c3,0,4-2.5,4-4.5v-9.6h2.1v10c0,3.6-2.6,6.2-6.1,6.2
				c-3.4,0-6.1-2.5-6.1-6.2v-10H471.1z"/>
			<path class="st12" d="M491.5,551.8h10.2v2h-8v4.7h7.5v2h-7.5v5h8.4v2h-10.6V551.8z"/>
			<path class="st12" d="M512.2,564.2c0.8,1.2,2.1,1.7,3.3,1.7c1.4,0,3.1-0.9,3.1-2.6c0-3.6-7.8-1.4-7.8-7.5c0-1.8,1.6-4.4,5.3-4.4
				c1.7,0,3.4,0.4,4.5,1.8l-1.7,1.6c-0.5-0.8-1.6-1.4-2.8-1.4c-2.4,0-3.1,1.4-3.1,2.4c0,4,7.8,1.6,7.8,7.3c0,3-2.4,4.9-5.5,4.9
				c-2,0-4-0.7-5-2.2L512.2,564.2z"/>
		</g>
		<g>
			<path class="st13" d="M234.4,585.2h2.1V601h-2.1V585.2z"/>
			<path class="st13" d="M249.9,585.2h2.8l8.7,12.9h0v-12.9h2.1V601h-2.7l-8.8-12.9h0V601h-2.1V585.2z"/>
			<path class="st13" d="M280.2,587.2h-5.1v-2h12.3v2h-5.1V601h-2.1V587.2z"/>
			<path class="st13" d="M299,585.2h10.2v2h-8v4.7h7.5v2h-7.5v5h8.4v2H299V585.2z"/>
			<path class="st13" d="M322,585.2h5.5c4,0,5,2.4,5,4.4c0,2-1.5,3.9-3.9,4.2l4.5,7.2h-2.7l-4-6.9h-2.4v6.9H322V585.2z M324.1,592.2
				h2.8c1.7,0,3.4-0.4,3.4-2.5c0-2.1-1.7-2.5-3.4-2.5h-2.8V592.2z"/>
			<path class="st13" d="M344.9,585.2h2.8l8.7,12.9h0v-12.9h2.1V601h-2.7l-8.8-12.9h0V601h-2.1V585.2z"/>
			<path class="st13" d="M376.8,585.2h1.9l6.7,15.7H383l-1.6-3.9H374l-1.6,3.9h-2.5L376.8,585.2z M380.7,595.2l-2.9-7.2h0l-3,7.2
				H380.7z"/>
			<path class="st13" d="M398.1,587.2h-5.1v-2h12.3v2h-5.1V601h-2.1V587.2z"/>
			<path class="st13" d="M416.9,585.2h2.1V601h-2.1V585.2z"/>
			<path class="st13" d="M431.5,593.1c0-4.7,3.4-8.3,8.2-8.3c4.8,0,8.2,3.6,8.2,8.3s-3.4,8.3-8.2,8.3
				C434.9,601.4,431.5,597.8,431.5,593.1z M445.6,593.1c0-3.4-2.3-6.3-5.9-6.3c-3.6,0-5.9,2.8-5.9,6.3s2.3,6.3,5.9,6.3
				C443.3,599.4,445.6,596.5,445.6,593.1z"/>
			<path class="st13" d="M460.3,585.2h2.8l8.7,12.9h0v-12.9h2.1V601h-2.7l-8.8-12.9h0V601h-2.1V585.2z"/>
			<path class="st13" d="M492.3,585.2h1.9l6.7,15.7h-2.5l-1.6-3.9h-7.5l-1.6,3.9h-2.5L492.3,585.2z M496.1,595.2l-2.9-7.2h0l-3,7.2
				H496.1z"/>
			<path class="st13" d="M512.3,585.2h2.1V599h7.2v2h-9.4V585.2z"/>
		</g>
	</g>
</g>
</svg>
