<?xml version="1.0" encoding="utf-8"?>
<!-- Generator: Adobe Illustrator 19.2.1, SVG Export Plug-In . SVG Version: 6.00 Build 0)  -->
<svg version="1.1" id="Layer_1" xmlns="http://www.w3.org/2000/svg" xmlns:xlink="http://www.w3.org/1999/xlink" x="0px" y="0px"
	 viewBox="0 0 792 612" style="enable-background:new 0 0 792 612;" xml:space="preserve">
<style type="text/css">
	.st0{display:none;}
	.st1{display:inline;}
	.st2{fill:#231F20;}
	.st3{fill:#C1272D;}
	.st4{fill:url(#SVGID_1_);}
	.st5{fill:url(#SVGID_2_);}
	.st6{fill:url(#SVGID_3_);}
	.st7{fill:#FFFFFF;}
	.st8{fill:url(#SVGID_4_);}
	.st9{fill:#6D6E71;}
	.st10{fill:url(#SVGID_5_);}
	.st11{fill:url(#SVGID_6_);}
	.st12{fill:#231F20;stroke:#231F20;stroke-width:1.4173;stroke-miterlimit:10;}
	.st13{fill:#841719;stroke:#841719;stroke-width:1.4173;stroke-miterlimit:10;}
	.st14{fill:#9C9EA1;}
</style>
<g id="Layer_1_1_" xmlns:cc="http://creativecommons.org/ns#" xmlns:dc="http://purl.org/dc/elements/1.1/" xmlns:rdf="http://www.w3.org/1999/02/22-rdf-syntax-ns#" class="st0">
	<g class="st1">
		<g transform="matrix(1.25,0,0,-1.25,0,320)">
			<g transform="translate(10.046 31.272)">
				<path class="st2" d="M111-162.5h4.5v31.2h0.1l21.8-31.2h5.6v37.6h-4.5v-31.2h-0.1L116.6-125H111V-162.5L111-162.5z M151.1-162.5
					h5l3.9,9.2h18.8l3.8-9.2h5.2l-16,37.6h-4.2L151.1-162.5z M177.1-149.2h-15.3l7.8,18.5h0.1L177.1-149.2z M196-162.5h4.5v31.5h0.1
					l13.5-31.5h2.7l13.5,31.5h0.1v-31.5h4.5v37.6h-6.5l-12.8-29.5h-0.1L202.6-125H196V-162.5L196-162.5z M247.3-162.5h24.6v4.1
					h-20.1v13.4h17.9v4.1h-17.9v11.8H271v4.1h-23.6L247.3-162.5L247.3-162.5z"/>
			</g>
			<g transform="translate(113.05 31.272)">
				<path class="st3" d="M178.9-162.5h11.2c7,0,14.6,2.2,14.6,10.5c0,4.9-3.7,8.8-8.5,9.2v0.1c4,1.2,6.6,4.1,6.6,8.5
					c0,6.9-6.3,9.2-12.5,9.2h-11.5L178.9-162.5L178.9-162.5z M183.4-129.1h6.6c4,0,8.1-1.1,8.1-5.7c0-5.2-4.4-6.1-8.5-6.1h-6.2
					L183.4-129.1L183.4-129.1z M183.4-145h7.6c4.5,0,9-1.6,9-6.8c0-4.8-4.7-6.5-9.1-6.5h-7.5V-145L183.4-145z M211.2-162.5h5
					l3.9,9.2h18.8l3.8-9.2h5.2l-16,37.6h-4.2L211.2-162.5z M237.2-149.2h-15.3l7.8,18.5h0.1L237.2-149.2z M255.4-162.5h14.4
					c7.4,0,18.4,4.9,18.4,18.8c0,13.9-11,18.8-18.4,18.8h-14.4V-162.5z M259.9-129.1h8.5c8.6,0,15.1-4.4,15.1-14.7
					s-6.5-14.6-15.1-14.6h-8.5V-129.1z M330.5-141.5h-13.1v-4.1h8.7v-11.5c-2.8-1.4-6.3-2.2-9.3-2.2c-9.2,0-15.6,6.6-15.6,15.6
					c0,9.1,6.5,15.6,15.1,15.6c3.8,0,7.7-1.5,10.2-4.3l3.3,3.5c-3.6,3.6-8.3,4.9-13.3,4.9c-11.3,0-20.2-7.9-20.2-19.8
					c0-11.8,8.4-19.7,20.1-19.7c4.9,0,9.8,1.1,14.1,3.5L330.5-141.5L330.5-141.5z M343.1-162.5h24.6v4.1h-20.1v13.4h17.9v4.1h-17.9
					v11.8h19.2v4.1h-23.6L343.1-162.5L343.1-162.5z M399.2-128.4c-2.8,3.2-6.3,4.4-10.5,4.4c-6.6,0-12.8-3.6-12.8-10.8
					c0-6.3,4-8.6,9.3-10.4c6.7-2.2,9.8-3,9.8-7.6c0-4.3-4.4-6.5-8.2-6.5c-3.2,0-6.4,1.4-8,4.2l-3.8-3.1c2.5-3.8,7.2-5.2,11.6-5.2
					c6.8,0,13.2,3.5,13.2,11c0,7.4-5.4,9.3-11.3,11.2c-6,1.9-7.9,3.4-7.9,6.9c0,4.5,4.1,6.3,8,6.3c2.7,0,5.4-1.1,6.8-3.5
					L399.2-128.4L399.2-128.4L399.2-128.4z"/>
			</g>
			<path class="st2" d="M120.7-177.9h2.6v22h-2.6V-177.9z M141.2-177.9h2.6v18.3h0.1l12.7-18.3h3.3v22h-2.6v-18.3h-0.1l-12.7,18.3
				h-3.3V-177.9z M192.5-155.9h-17.1v-2.4h7.3v-19.6h2.6v19.6h7.3v2.4H192.5z M208-177.9h14.4v2.4h-11.8v7.8h10.5v2.4h-10.5v6.9
				h11.2v2.4H208V-177.9L208-177.9z M238.9-177.9h2.6v9.9h3.4l6-9.9h3.2l-6.2,10.1c3.4,0.5,5.5,2.6,5.5,5.8c0,5.4-4.5,6.1-8.8,6.1
				H239L238.9-177.9L238.9-177.9z M241.5-158.3h3.7c2.5,0,5.3-0.5,5.3-3.6c0-3.6-3.8-3.6-6.6-3.6h-2.3L241.5-158.3L241.5-158.3z
				 M270.3-177.9h2.6v18.3h0.1l12.7-18.3h3.3v22h-2.6v-18.3h-0.1l-12.7,18.3h-3.3V-177.9z M304.3-177.9h2.9l2.3,5.4h11l2.2-5.4h3
				l-9.3,22H314L304.3-177.9L304.3-177.9z M319.6-170h-9l4.6,10.8h0.1L319.6-170z M353.1-155.9H336v-2.4h7.3v-19.6h2.6v19.6h7.3
				L353.1-155.9L353.1-155.9z M368.6-177.9h2.6v22h-2.6V-177.9z M399.3-178.4c6.7,0,11.5,4.9,11.5,11.5s-4.8,11.6-11.5,11.6
				s-11.5-4.9-11.5-11.6C387.8-173.5,392.6-178.4,399.3-178.4 M399.3-176c-5.1,0-8.7,4.1-8.7,9.1c0,5.1,3.5,9.1,8.7,9.1
				s8.7-4.1,8.7-9.1S404.5-176,399.3-176 M427.4-177.9h2.6v18.3h0.1l12.7-18.3h3.3v22h-2.6v-18.3h-0.1l-12.7,18.3h-3.3V-177.9
				L427.4-177.9z M461.5-177.9h2.9l2.3,5.4h11l2.2-5.4h3l-9.3,22h-2.4L461.5-177.9z M476.7-170h-9l4.6,10.8h0.1L476.7-170z
				 M498.3-177.9H511v2.4h-10.1v19.6h-2.6V-177.9z"/>
			
				<linearGradient id="SVGID_1_" gradientUnits="userSpaceOnUse" x1="176.5247" y1="-867.4197" x2="177.3924" y2="-867.4197" gradientTransform="matrix(-335.6774 -369.669 369.669 -335.6774 380208.9063 -225603.5313)">
				<stop  offset="0" style="stop-color:#FFFFFF"/>
				<stop  offset="1" style="stop-color:#231F20"/>
			</linearGradient>
			<path class="st4" d="M140.8,213.2c-17.7-22.4-4.3-54.2,30.2-81.3c-20.8,22.9-26.7,47-12.5,65c16.6,20.9,57.6,28,102.5,21.6
				l10.6,5.1l7.8,3.1c-23.4,6.9-46.8,10.4-67.9,10.4C179.7,237,153.4,229.1,140.8,213.2"/>
			
				<linearGradient id="SVGID_2_" gradientUnits="userSpaceOnUse" x1="175.5458" y1="-867.4244" x2="176.4136" y2="-867.4244" gradientTransform="matrix(595.695 566.0925 -566.0925 595.695 -595394.6875 417350.5625)">
				<stop  offset="0" style="stop-color:#881518"/>
				<stop  offset="0.5" style="stop-color:#C1272D"/>
				<stop  offset="1" style="stop-color:#CE181F"/>
			</linearGradient>
			<path class="st5" d="M185.2,99.9C185.2,26,245.1-33.9,319-33.9S452.8,26,452.8,99.9S392.9,233.7,319,233.7
				C245.1,233.8,185.2,173.9,185.2,99.9"/>
			
				<linearGradient id="SVGID_3_" gradientUnits="userSpaceOnUse" x1="174.9933" y1="-867.402" x2="175.8611" y2="-867.402" gradientTransform="matrix(237.5311 237.064 -237.064 237.5311 -246875.6719 164653.5625)">
				<stop  offset="0" style="stop-color:#C6262C"/>
				<stop  offset="0.5" style="stop-color:#DF917A"/>
				<stop  offset="1" style="stop-color:#FFFFFF"/>
			</linearGradient>
			<path class="st6" d="M291.9,211.8c-22.1-22-9.3-70.6,28.6-108.6C358.4,65.3,407,52.4,429,74.4c22.1,22,13.5,74.9-24.3,112.9
				c-24.2,24.2-54.4,36.5-78.9,36.5C311.9,223.7,299.9,219.8,291.9,211.8"/>
			<g transform="translate(120.96 151.25)">
				<path class="st7" d="M184.1-83.4h-17.8c-9.5,13.3-18.8,24.2-28.1,32.7c-9.2,8.4-18.3,14.4-27.3,18c-0.7,0.3-1.4,0.5-2.1,0.8
					c-0.8,0.3-1.6,0.6-2.5,0.9c0.2-2.5,0.3-4.2,0.3-5v-47.3H90.2l0.1,70.5h14.5c5.5-1.8,11-4.2,16.3-7.1c5.4-2.9,10.6-6.2,15.6-9.9
					c5.1-3.7,9.9-7.7,14.7-12.1c4.7-4.4,9.2-8.9,13.5-13.7l3-3.4c-0.2,2-0.3,3.6-0.3,4.6V-13h16.5L184.1-83.4"/>
			</g>
			<g transform="translate(169.64 193.67)">
				<path class="st7" d="M216.3-55.4c12.6,0,18.9-6,18.9-17.9c0-4.8-1.1-8.6-3.3-11.4s-5.4-4.6-9.6-5.3c4-0.8,7.2-2.6,9.5-5.6
					s3.4-7.1,3.4-12.4c0-11.9-6.3-17.8-19-17.8l-73.2,0.1l0.1,70.5L216.3-55.4 M159.8-109.4l51.9-0.1c3.7,0,5.6,1.8,5.6,5.3
					c0,4-1.9,6.1-5.6,6.1h-39.9v14.9h39.9c3.7,0,5.6,2,5.6,6.1c0,3.5-1.9,5.3-5.6,5.3l-51.9,0.1L159.8-109.4z"/>
			</g>
			<g transform="translate(195.29 185.26)">
				<path class="st7" d="M233.2-60.9h-16.8V-47h16.8V-60.9 M216.3-117.5v49.2h16.8v-49.2H216.3z"/>
			</g>
			
				<linearGradient id="SVGID_4_" gradientUnits="userSpaceOnUse" x1="176.5247" y1="-867.4963" x2="177.3923" y2="-867.4963" gradientTransform="matrix(-335.5468 -369.5244 369.5244 -335.5468 380277.7813 -225713.0313)">
				<stop  offset="0" style="stop-color:#FFFFFF"/>
				<stop  offset="1" style="stop-color:#231F20"/>
			</linearGradient>
			<path class="st8" d="M484.3,21.3c-16.7-37.7-92.3-40.7-168.9-6.8c-24,10.6-45.3,23.6-62.6,37.6c19.7-20.9,48.5-41.1,82.9-56.3
				C412.3-38.1,488-35,504.6,2.6c11.4,25.9-7.9,61.3-46,92C482.8,68.9,493.5,42,484.3,21.3"/>
		</g>
		<g>
			<path class="st9" d="M168.7,575.1h3.5l12,28.1h-4.4l-2.8-6.9h-13.4l-2.8,6.9h-4.4L168.7,575.1z M175.5,593l-5.2-12.9h-0.1
				l-5.3,12.9H175.5z"/>
			<path class="st9" d="M224.5,575.1v17.2c0,3.5,1.7,8,7.1,8c5.3,0,7.1-4.5,7.1-8v-17.2h3.8V593c0,6.5-4.7,11-10.9,11
				s-10.9-4.5-10.9-11v-17.8h3.8L224.5,575.1L224.5,575.1z"/>
			<path class="st9" d="M283.3,597.4c1.4,2.1,3.7,3,6,3c2.5,0,5.6-1.6,5.6-4.7c0-6.5-13.9-2.5-13.9-13.4c0-3.3,2.8-7.9,9.5-7.9
				c3.1,0,6,0.6,8.1,3.2l-3.1,2.8c-1-1.5-2.8-2.5-5-2.5c-4.2,0-5.5,2.5-5.5,4.3c0,7.1,13.9,2.9,13.9,13c0,5.4-4.4,8.7-9.8,8.7
				c-3.6,0-7.1-1.2-9-3.9L283.3,597.4z"/>
			<path class="st9" d="M343.8,578.7h-9.1v-3.6h21.9v3.6h-9.1v24.5h-3.8L343.8,578.7L343.8,578.7z"/>
			<path class="st9" d="M394.1,575.1h9.9c7.2,0,9,4.3,9,7.9c0,3.6-2.7,7-6.9,7.4l8,12.8h-4.8l-7.1-12.4h-4.3v12.4h-3.8L394.1,575.1
				L394.1,575.1z M397.9,587.5h5c3,0,6-0.7,6-4.5s-3-4.5-6-4.5h-5V587.5z"/>
			<path class="st9" d="M460.5,575.1h3.5l12,28.1h-4.4l-2.8-6.9h-13.4l-2.8,6.9h-4.4L460.5,575.1z M467.4,593l-5.2-12.9h-0.1
				l-5.3,12.9H467.4z"/>
			<path class="st9" d="M513,575.1h3.8v24.5h12.9v3.6H513V575.1L513,575.1z"/>
			<path class="st9" d="M567,575.1h3.8v28.1H567V575.1z"/>
			<path class="st9" d="M620.2,575.1h3.5l12,28.1h-4.4l-2.8-6.9h-13.4l-2.8,6.9h-4.4L620.2,575.1z M627.1,593l-5.2-12.9h-0.1
				l-5.3,12.9H627.1z"/>
		</g>
	</g>
</g>
<g id="Layer_2">
	<g>
		<polygon class="st2" points="422,179.9 443.5,119.2 406.9,72.3 262.2,116.2 262.2,488.6 535.5,488.6 535.5,195.1 485.5,159.3 		
			"/>
		
			<radialGradient id="SVGID_5_" cx="457.6974" cy="611.7591" r="244.6767" gradientTransform="matrix(0.7425 0 0 0.7106 59.036 -157.1729)" gradientUnits="userSpaceOnUse">
			<stop  offset="0" style="stop-color:#851417"/>
			<stop  offset="1" style="stop-color:#C0272D"/>
		</radialGradient>
		<polygon class="st10" points="422,177.1 443.5,116.3 406.9,69.3 262.2,113.4 262.2,485.8 535.5,485.8 535.5,192.2 485.5,156.4 		
			"/>
		<g>
			
				<linearGradient id="SVGID_6_" gradientUnits="userSpaceOnUse" x1="402.9719" y1="282.2632" x2="593.5294" y2="282.2632" gradientTransform="matrix(1 0 0 1 0 -178)">
				<stop  offset="6.060610e-003" style="stop-color:#C0272D"/>
				<stop  offset="0.1697" style="stop-color:#C0272D"/>
				<stop  offset="0.2727" style="stop-color:#851417"/>
				<stop  offset="0.3455" style="stop-color:#851417"/>
				<stop  offset="0.4242" style="stop-color:#851417"/>
				<stop  offset="0.5152" style="stop-color:#C0272D"/>
				<stop  offset="0.5734" style="stop-color:#C73F44"/>
				<stop  offset="0.6963" style="stop-color:#D97B7F"/>
				<stop  offset="0.8725" style="stop-color:#F5DCDD"/>
				<stop  offset="0.9333" style="stop-color:#FFFFFF"/>
				<stop  offset="1" style="stop-color:#FFFFFF"/>
			</linearGradient>
			<path class="st11" d="M539.1,195.4c-0.1,0-0.2,0-0.3-0.1l-53.5-38.2l-63.2,20.5c-0.2,0.1-0.4,0-0.6-0.1c-0.1-0.1-0.2-0.4-0.1-0.5
				l21.4-60.6L403,65.2c-0.1-0.2-0.1-0.4,0-0.5c0.1-0.1,0.3-0.3,0.5-0.3l66.8,0.8l38.4-52.1c0.1-0.2,0.3-0.3,0.5-0.2
				c0.2,0,0.4,0.2,0.4,0.4l19.9,61.1l63.8,19.1c0.2,0.1,0.3,0.2,0.4,0.4c0,0.2-0.1,0.4-0.2,0.5l-54.5,36.9l0.9,63.9
				c0,0.2-0.1,0.4-0.3,0.5C539.2,195.4,539.2,195.4,539.1,195.4z M485.4,156c0.1,0,0.2,0,0.3,0.1l52.9,37.8l-0.9-63.2
				c0-0.2,0.1-0.3,0.2-0.4l53.9-36.5l-63-18.6c-0.2-0.1-0.3-0.2-0.4-0.4l-19.6-60.2l-38.1,51.6c-0.1,0.1-0.3,0.2-0.4,0.2l0,0
				l-66-0.8l39.4,50.7c0.1,0.1,0.1,0.3,0.1,0.5l-21.2,59.8l62.5-20.3C485.3,156,485.4,156,485.4,156z"/>
		</g>
		<g>
			<path class="st7" d="M298.3,358.5v-66.7c0-21.7,15-36.6,37.1-36.6s37.1,14.8,37.1,36.6v66.7h-26.4v-35.4h-16.5v-23h16.5v-9.6
				c0-7.6-4.2-12.5-10.8-12.5s-10.8,4.9-10.8,12.5v67.9L298.3,358.5L298.3,358.5z"/>
			<path class="st7" d="M389.4,358.5v-65.7c0-24.1,15-37.5,37.8-37.5c19.7,0,35.9,13.9,35.9,34.3c0,21.1-13.5,35.6-36.2,35.6h-6.6
				v-23.5c10.2,0,16.5-1.4,16.5-12.2c0-5.7-4.1-10.8-11.1-10.8c-6.1,0-9.9,4-9.9,10.1v69.6L389.4,358.5L389.4,358.5z"/>
			<path class="st7" d="M487.3,255.2c7.8,0,13.8,5.7,13.8,13.2c0,7.5-6.1,13.2-13.8,13.2c-7.7,0-13.8-5.7-13.8-13.2
				C473.6,260.9,479.6,255.2,487.3,255.2z M499.4,358.5h-24.3V288h24.3V358.5z"/>
		</g>
		<g>
			<path class="st12" d="M120.8,512.8h3.9l13.7,31.9h-5.1l-3.3-7.9h-15.4l-3.3,7.9h-5.2L120.8,512.8z M128.5,533.1l-6-14.6l0,0
				l-6.1,14.6H128.5z"/>
			<path class="st12" d="M151.2,512.8h4.5l7.1,25.6l0,0l7.6-25.6h4.9l7.6,25.6l0,0l7.1-25.6h4.5l-9.4,31.9h-4.5l-7.7-26.2l0,0
				l-7.7,26.2h-4.5L151.2,512.8z"/>
			<path class="st12" d="M221.6,512.8h3.9l13.7,31.9h-5.1l-3.3-7.9h-15.3l-3.3,7.9h-5.1L221.6,512.8z M229.3,533.1l-6-14.6l0,0
				l-6.1,14.6H229.3z"/>
			<path class="st12" d="M257.1,512.8h11.2c8.2,0,10.2,4.8,10.2,9s-3,7.9-8,8.5l9.2,14.6h-5.4l-8.2-14h-4.9v14H257v-32.1H257.1z
				 M261.4,526.8h5.7c3.5,0,6.9-0.8,6.9-5s-3.5-5-6.9-5h-5.7V526.8z"/>
			<path class="st12" d="M297.8,512.8H309c13.5,0,17,10.2,17,16.1c0,8.1-6.1,16.1-17.6,16.1H298v-32.1L297.8,512.8L297.8,512.8z
				 M302.2,540.6h5.5c7.4,0,13.7-4,13.7-11.9c0-4-2-11.9-12.7-11.9h-6.6L302.2,540.6L302.2,540.6z"/>
			<path class="st12" d="M346.9,538c1.6,2.5,4.3,3.5,6.8,3.5c2.8,0,6.3-1.9,6.3-5.3c0-7.3-15.9-2.9-15.9-15.2c0-3.7,3.3-9,10.9-9
				c3.5,0,6.9,0.8,9.2,3.7l-3.5,3.3c-1-1.6-3.3-2.9-5.7-2.9c-4.9,0-6.3,2.9-6.3,4.8c0,8.1,15.9,3.3,15.9,14.8c0,6.1-4.9,10-11.2,10
				c-4.1,0-8.2-1.4-10.2-4.4L346.9,538z"/>
			<path class="st13" d="M411.1,512.8h11.2c8.2,0,10.2,4.8,10.2,9s-2,9-10.2,9h-6.9v14h-4.3L411.1,512.8L411.1,512.8z M415.4,526.8
				h5.7c3.5,0,6.9-0.8,6.9-5s-3.5-5-6.9-5h-5.7V526.8z"/>
			<path class="st13" d="M451.6,512.8h4.3v27.8h14.8v4h-19.2v-31.9h0.2V512.8z"/>
			<path class="st13" d="M499,512.8h3.9l13.7,31.9h-5.1l-3.3-7.9H493l-3.3,7.9h-5.1L499,512.8z M506.8,533.1l-6-14.6l0,0l-6.1,14.6
				H506.8z"/>
			<path class="st13" d="M567.8,544.7h-18.6c-9.2,0-16.8-6.9-16.8-16.3s7.1-16.5,16.5-16.5c9,0,16.4,6.9,16.4,16.1
				c0,5.5-2.7,10.8-7.4,13l0,0h9.6v3.7L567.8,544.7L567.8,544.7z M561,528.1c0-6.7-5.1-12.2-11.8-12.2s-11.8,5.3-11.8,11.9
				c0,6.9,4.9,12.6,11.8,12.6C556.1,540.6,561,535.2,561,528.1z"/>
			<path class="st13" d="M589.8,512.8v19.5c0,4,2,9.2,8.2,9.2s8.2-5,8.2-9.2v-19.5h4.3v20.3c0,7.3-5.3,12.6-12.5,12.6
				c-6.9,0-12.5-5-12.5-12.6v-20.3H589.8z"/>
			<path class="st13" d="M631.6,512.8h20.8v4H636v9.6h15.3v4H636v10.2h17.3v4h-21.7V512.8z"/>
			<path class="st13" d="M673.9,538c1.6,2.5,4.3,3.5,6.8,3.5c2.8,0,6.3-1.9,6.3-5.3c0-7.3-15.9-2.9-15.9-15.2c0-3.7,3.3-9,10.9-9
				c3.5,0,6.9,0.8,9.2,3.7l-3.5,3.3c-1-1.6-3.3-2.9-5.7-2.9c-4.9,0-6.3,2.9-6.3,4.8c0,8.1,15.9,3.3,15.9,14.8c0,6.1-4.9,10-11.2,10
				c-4.1,0-8.2-1.4-10.2-4.4L673.9,538z"/>
		</g>
		<g>
			<path class="st14" d="M139.8,570.1h3.8v27.3h-3.8V570.1z"/>
			<path class="st14" d="M167.8,570.1h5.1l15.7,22.2l0,0v-22.2h3.8v27.3h-4.9l-15.9-22.2l0,0v22.2h-3.8V570.1L167.8,570.1z"/>
			<path class="st14" d="M222.5,573.6h-9.2v-3.5h22.2v3.5h-9.2v23.8h-3.7V573.6L222.5,573.6z"/>
			<path class="st14" d="M256.4,570.1h18.4v3.5h-14.4v8.1h13.5v3.5h-13.5v8.7h15.1v3.5h-19.1V570.1z"/>
			<path class="st14" d="M297.8,570.1h9.9c7.2,0,9,4.1,9,7.6s-2.7,6.7-7,7.2l8.1,12.5H313l-7.2-11.9h-4.3v11.9h-3.6V570.1z
				 M301.6,582.2h5.1c3,0,6.1-0.7,6.1-4.3c0-3.6-3-4.3-6.1-4.3h-5.1V582.2z"/>
			<path class="st14" d="M339.1,570.1h5.1l15.7,22.2l0,0v-22.2h3.8v27.3h-4.9l-15.9-22.2l0,0v22.2h-3.8V570.1z"/>
			<path class="st14" d="M396.7,570.1h3.4l12.1,27.1h-4.3l-2.9-6.7h-13.4l-2.9,6.7h-4.5L396.7,570.1z M403.7,587.4l-5.3-12.5l0,0
				l-5.4,12.5H403.7z"/>
			<path class="st14" d="M435.1,573.6h-9.2v-3.5h22.2v3.5h-9.2v23.8H435L435.1,573.6L435.1,573.6z"/>
			<path class="st14" d="M469,570.1h3.8v27.3H469V570.1z"/>
			<path class="st14" d="M495.3,583.8c0-8.1,6.1-14.3,14.8-14.3c8.7,0,14.8,6.2,14.8,14.3s-6.1,14.3-14.8,14.3
				C501.4,598.1,495.3,591.9,495.3,583.8z M520.7,583.8c0-5.9-4.2-10.9-10.6-10.9c-6.5,0-10.6,4.8-10.6,10.9
				c0,6.1,4.2,10.9,10.6,10.9C516.7,594.6,520.7,589.6,520.7,583.8z"/>
			<path class="st14" d="M547.3,570.1h5.1l15.7,22.2l0,0v-22.2h3.8v27.3h-5L551,575.1l0,0v22.2h-3.8L547.3,570.1L547.3,570.1z"/>
			<path class="st14" d="M605,570.1h3.4l12.1,27.1H616l-2.9-6.7h-13.5l-2.9,6.7h-4.5L605,570.1z M611.9,587.4l-5.3-12.5l0,0
				l-5.4,12.5H611.9z"/>
			<path class="st14" d="M641,570.1h3.8v23.8h13v3.5h-17v-27.3H641z"/>
		</g>
	</g>
</g>
</svg>
