<?xml version="1.0" encoding="UTF-8" standalone="no"?>
<svg version="1.1" viewBox="-1 -1 246 42" xml:space="preserve" xmlns="http://www.w3.org/2000/svg" xmlns:cc="http://creativecommons.org/ns#" xmlns:dc="http://purl.org/dc/elements/1.1/" xmlns:rdf="http://www.w3.org/1999/02/22-rdf-syntax-ns#" xmlns:xlink="http://www.w3.org/1999/xlink">
	<defs>
		<linearGradient gradientTransform="matrix(-14.186 -15.622 15.622 -14.186 19.315 41.34)" gradientUnits="userSpaceOnUse" id="linearGradient4028" x1="0" x2="1" y1="0" y2="0">
			<stop offset="0" stop-color="#fff"/>
			<stop offset="1" stop-color="#231f20"/>
		</linearGradient>
		<linearGradient gradientTransform="matrix(25.174 23.924 -23.924 25.174 10.291 4.6719)" gradientUnits="userSpaceOnUse" id="linearGradient4030" x1="0" x2="1" y1="0" y2="0">
			<stop offset="0" stop-color="#881518"/>
			<stop offset=".5" stop-color="#c1272d"/>
			<stop offset="1" stop-color="#ce181f"/>
		</linearGradient>
		<linearGradient gradientTransform="matrix(10.038 10.018 -10.018 10.038 22.289 16.299)" gradientUnits="userSpaceOnUse" id="linearGradient4032" x1="0" x2="1" y1="0" y2="0">
			<stop offset="0" stop-color="#c6262c"/>
			<stop offset=".5" stop-color="#df917a"/>
			<stop offset="1" stop-color="#fff"/>
		</linearGradient>
		<linearGradient gradientTransform="matrix(-14.18 -15.616 15.616 -14.18 41.794 20.943)" gradientUnits="userSpaceOnUse" id="linearGradient4034" x1="0" x2="1" y1="0" y2="0">
			<stop offset="0" stop-color="#fff"/>
			<stop offset="1" stop-color="#231f20"/>
		</linearGradient>
	</defs>
	<g transform="matrix(1.25 0 0 -1.25 0 40.23)">
		<g>
			<path d="m56.003 16.591h1.5813v11.073h0.03828l7.7198-11.073h1.9965v13.334h-1.5813v-11.074h-0.03828l-7.7209 11.074h-1.9953v-13.334zm14.233 0h1.7898l1.374 3.2751h6.6667l1.3563-3.2751h1.8445l-5.6679 13.334h-1.4876l-5.8758-13.334zm9.2263 4.7439h-5.44l2.7662 6.5566h0.03945l2.6343-6.5566zm6.7021-4.7439h1.5825v11.185h0.03651l4.7833-11.185h0.96114l4.7833 11.185h0.03651v-11.185h1.5831v13.334h-2.2974l-4.5578-10.452h-0.03828l-4.5189 10.452h-2.354v-13.334zm18.208 0h8.718v1.4682h-7.1391v4.7445h6.3464v1.4694h-6.3464v4.1832h6.7981v1.4688h-8.377v-13.334z" fill="#231f20"/>
			<path d="m116.67 16.591h3.9736c2.467 0 5.1962 0.79035 5.1962 3.728 0 1.7521-1.2968 3.1272-3.0112 3.2757v0.04122c1.4323 0.42816 2.3357 1.4659 2.3357 3.0118 0 2.4494-2.2226 3.2774-4.4253 3.2774h-4.069v-13.334zm1.5831 11.865h2.3528c1.4323 0 2.8622-0.37868 2.8622-2.0177 0-1.8445-1.543-2.1655-3.0307-2.1655h-2.1844v4.1832zm0-5.6526h2.7103c1.6007 0 3.1838-0.56597 3.1838-2.4264 0-1.6967-1.6779-2.318-3.2209-2.318h-2.6732v4.7445zm9.8635-6.2127h1.7898l1.3728 3.2751h6.6662l1.3598-3.2751h1.8428l-5.6679 13.334h-1.4859l-5.8776-13.334zm9.228 4.7439h-5.4418l2.7674 6.5566h0.0383l2.6361-6.5566zm6.4559-4.7439h5.1232c2.6178 0 6.5325 1.7515 6.5325 6.665 0 4.9147-3.9147 6.6691-6.5325 6.6691h-5.1232v-13.334zm1.5819 11.865h3.0124c3.0519 0 5.3687-1.546 5.3687-5.2003 0-3.6538-2.3169-5.1968-5.3687-5.1968h-3.0124v10.397zm25.081-4.4058h-4.6538v-1.4694h3.0725v-4.0878c-0.98057-0.4894-2.2403-0.7715-3.3139-0.7715-3.278 0-5.5183 2.3534-5.5183 5.5342 0 3.2397 2.3175 5.5383 5.3646 5.5383 1.3593 0 2.7321-0.54653 3.6355-1.5265l1.1861 1.2438c-1.2603 1.2827-2.9547 1.7521-4.7062 1.7521-3.9942 0-7.1738-2.8063-7.1738-7.0077 0-4.1773 2.973-7.003 7.1161-7.003 1.735 0 3.4647 0.39223 4.9912 1.2409v6.5566zm4.4429-7.4595h8.7162v1.4682h-7.1379v4.7445h6.3475v1.4694h-6.3475v4.1832h6.7987v1.4688h-8.377v-13.334zm19.918 12.107c-0.9794 1.1514-2.2409 1.566-3.7268 1.566-2.3357 0-4.5407-1.2821-4.5407-3.841 0-2.2268 1.4305-3.0536 3.3134-3.6732 2.3728-0.79447 3.4841-1.0778 3.4841-2.7132 0-1.5236-1.5448-2.3145-2.8987-2.3145-1.1496 0-2.2786 0.50766-2.844 1.4876l-1.3534-1.1119c0.90343-1.3369 2.5583-1.8445 4.1043-1.8445 2.4099 0 4.6868 1.2409 4.6868 3.8952 0 2.6196-1.9194 3.298-3.9918 3.9571-2.1255 0.67786-2.8063 1.222-2.8063 2.4488 0 1.5789 1.4523 2.2403 2.8463 2.2403 0.95938 0 1.9005-0.37868 2.4282-1.2273l1.2986 1.1308z" fill="#c1272d"/>
			<path d="m55.895 2.4782h0.92522v7.7993h-0.92522v-7.7993zm7.2739 0h0.92581v6.4765h0.0218l4.5171-6.4765h1.1679v7.7993h-0.9264v-6.4795h-0.02297l-4.5148 6.4795h-1.1684v-7.7993zm18.216 7.7993h-6.0808v-0.8622h2.5772v-6.9371h0.92463v6.9371h2.5789v0.8622zm5.5018-7.7993h5.1002v0.85926h-4.1755v2.7757h3.7138v0.85926h-3.7138v2.4429h3.9777v0.8622h-4.9023v-7.7993zm10.944 0h0.92463v3.503h1.1902l2.1137-3.503h1.1366l-2.2144 3.5907c1.2102 0.18669 1.95 0.92286 1.95 2.0595 0 1.9264-1.5984 2.149-3.1078 2.149h-1.993v-7.7993zm0.92463 6.9371h1.3015c0.90049 0 1.8805-0.16431 1.8805-1.2868 0-1.288-1.331-1.288-2.3563-1.288h-0.82569v2.5748zm10.218-6.9371h0.92463v6.4765h0.0212l4.5177-6.4765h1.1679v7.7993h-0.92699v-6.4795h-0.0218l-4.5148 6.4795h-1.1679v-7.7993zm12.079 0h1.0466l0.8033 1.9158h3.8993l0.79565-1.9158h1.076l-3.3139 7.7993h-0.86986l-3.437-7.7993zm5.397 2.7727h-3.1826l1.6196 3.8357h0.0206l1.5424-3.8357zm11.893 5.0266h-6.0802v-0.8622h2.5748v-6.9371h0.92875v6.9371h2.5766v0.8622zm5.503-7.7993h0.92522v7.7993h-0.92522v-7.7993zm10.897-0.19788c2.3681 0 4.0742 1.7374 4.0742 4.096 0 2.3587-1.7061 4.099-4.0742 4.099-2.3687 0-4.0754-1.7403-4.0754-4.099s1.7067-4.096 4.0754-4.096m0 0.85631c-1.8269 0-3.086 1.4441-3.086 3.2397 0 1.7963 1.2592 3.2368 3.086 3.2368 1.8286 0 3.0836-1.4405 3.0836-3.2368 0-1.7957-1.255-3.2397-3.0836-3.2397m9.9771-0.65843h0.92522v6.4765h0.02l4.5183-6.4765h1.1667v7.7993h-0.92463v-6.4795h-0.0224l-4.516 6.4795h-1.1673v-7.7993zm12.081 0h1.046l0.80154 1.9158h3.9011l0.79389-1.9158h1.0795l-3.3169 7.7993h-0.86809l-3.437-7.7993zm5.3976 2.7727h-3.185l1.6196 3.8357h0.0218l1.5436-3.8357zm7.6703-2.7727h4.4948v0.85926h-3.5695v6.94h-0.92523v-7.7993z" fill="#231f20"/>
		</g>
		<path d="m0.92778 29.374c-2.1066-2.664-0.50593-6.446 3.5875-9.667-2.4707 2.7177-3.1773 5.584-1.4835 7.7257 1.9683 2.4892 6.853 3.3339 12.185 2.5642l1.2623 0.60519 0.93293 0.36406c-2.7791 0.82381-5.5688 1.237-8.075 1.2372-3.7797 0.0002-6.9159-0.93964-8.4094-2.8288" fill="url(#linearGradient4028)"/>
		<path d="m6.2061 15.909c0-8.7867 7.1225-15.909 15.908-15.909 8.7871 0 15.91 7.1223 15.91 15.909 0 8.7869-7.1233 15.91-15.91 15.91-8.7859 0-15.908-7.1231-15.908-15.91" fill="url(#linearGradient4030)"/>
		<path d="m18.888 29.206c-2.6242-2.6186-1.102-8.3976 3.4008-12.909 4.5015-4.5092 10.277-6.0428 12.901-3.4247 2.6263 2.6206 1.6088 8.9061-2.8931 13.416-2.8718 2.8768-6.4686 4.3363-9.3773 4.3365-1.6516 0.0002-3.081-0.47022-4.0313-1.4187" fill="url(#linearGradient4032)"/>
		<g fill="#fff">
			<path d="m20.462 12.099-2.1204 0.002c-1.1295 1.5865-2.2406 2.8807-3.3371 3.8823-1.0955 1.0014-2.1764 1.7133-3.2408 2.1362-0.0789 0.0302-0.16457 0.0618-0.25474 0.0949-0.092 0.0337-0.18864 0.0691-0.29184 0.10557 0.026-0.30309 0.0399-0.49962 0.0399-0.58901l-0.006-5.6229-1.9509 0.002 0.008 8.3792 1.7266-0.002c0.65491-0.21528 1.3025-0.49587 1.9401-0.84158 0.63735-0.34393 1.2556-0.7362 1.8564-1.1737 0.60045-0.43786 1.181-0.91577 1.7422-1.4349 0.56098-0.51974 1.0965-1.061 1.6062-1.6247l0.35952-0.39938c-0.0249 0.2433-0.0377 0.42582-0.0377 0.54421l0.005 4.9232 1.9637-0.002-0.008-8.3802"/>
			<path d="m30.067 20.471c1.5004-0.001 2.2483-0.71075 2.2483-2.1273-0.00079-0.57184-0.13161-1.0257-0.38912-1.3586-0.26026-0.33347-0.64129-0.54559-1.1415-0.63399 0.48008-0.0894 0.85361-0.31197 1.1241-0.66695 0.26875-0.35518 0.40194-0.8473 0.40194-1.4752-0.002-1.4148-0.75258-2.1184-2.253-2.1177l-8.706 0.008 0.008 8.3796 8.707-0.008m-6.7109-6.4264 6.1683-0.006c0.44436-0.00079 0.66694 0.20837 0.66793 0.63005 0 0.47988-0.22159 0.71943-0.66418 0.72062l-4.7489 0.004 0.00099 1.7718 4.748-0.005c0.44436 0 0.66674 0.24133 0.66773 0.72476 0 0.41773-0.22139 0.62571-0.66773 0.62571l-6.1663 0.007-0.006-4.4727z"/>
			<path d="m35.129 18.811-2.0028 0.001 0.003 1.6559 2.0024-0.002-0.003-1.6553m-2.0066-6.7221 0.004 5.8533 2.0028-0.002-0.006-5.8541-2.0008 0.003z"/>
		</g>
		<path d="m41.762 6.5615c-1.9805-4.4782-10.97-4.8397-20.08-0.8106-2.854 1.2621-5.38 2.8059-7.444 4.4691 2.3463-2.49 5.7647-4.8809 9.86-6.6927 9.1101-4.0283 18.099-3.6658 20.081 0.81119 1.358 3.0739-0.942 7.2885-5.466 10.934 2.8738-3.0492 4.1374-6.2466 3.0484-8.7105" fill="url(#linearGradient4034)"/>
	</g>
</svg>
