<?xml version="1.0" encoding="UTF-8" standalone="no"?>
<svg version="1.1" viewBox="0 0 320 320" xml:space="preserve" xmlns="http://www.w3.org/2000/svg" xmlns:cc="http://creativecommons.org/ns#" xmlns:dc="http://purl.org/dc/elements/1.1/" xmlns:rdf="http://www.w3.org/1999/02/22-rdf-syntax-ns#">
	<defs>
		<linearGradient gradientTransform="matrix(-71.892 -79.172 79.172 -71.892 115.15 299.44)" gradientUnits="userSpaceOnUse" id="linearGradient42" x1="0" x2="1" y1="0" y2="0">
			<stop offset="0" stop-color="#fff"/>
			<stop offset="1" stop-color="#231f20"/>
		</linearGradient>
		<linearGradient gradientTransform="matrix(127.58 121.24 -121.24 127.58 69.417 113.61)" gradientUnits="userSpaceOnUse" id="linearGradient62" x1="0" x2="1" y1="0" y2="0">
			<stop offset="0" stop-color="#881518"/>
			<stop offset=".5" stop-color="#c1272d"/>
			<stop offset="1" stop-color="#ce181f"/>
		</linearGradient>
		<linearGradient gradientTransform="matrix(50.872 50.772 -50.772 50.872 130.22 172.53)" gradientUnits="userSpaceOnUse" id="linearGradient84" x1="0" x2="1" y1="0" y2="0">
			<stop offset="0" stop-color="#c6262c"/>
			<stop offset=".5" stop-color="#df917a"/>
			<stop offset="1" stop-color="#fff"/>
		</linearGradient>
		<linearGradient gradientTransform="matrix(-71.864 -79.141 79.141 -71.864 229.07 196.07)" gradientUnits="userSpaceOnUse" id="linearGradient126" x1="0" x2="1" y1="0" y2="0">
			<stop offset="0" stop-color="#fff"/>
			<stop offset="1" stop-color="#231f20"/>
		</linearGradient>
	</defs>
	<g transform="matrix(1.25,0,0,-1.25,0,320)">
		<g transform="translate(10.046 31.272)">
			<path d="m0 0h2.685v18.801h0.065l13.108-18.801h3.39v22.641h-2.685v-18.804h-0.065l-13.11 18.804h-3.388v-22.641zm24.167 0h3.039l2.333 5.561h11.32l2.303-5.561h3.132l-9.624 22.641h-2.526l-9.977-22.641zm15.666 8.055h-9.237l4.697 11.133h0.067l4.473-11.133zm11.38-8.055h2.687v18.992h0.062l8.122-18.992h1.632l8.122 18.992h0.062v-18.992h2.688v22.641h-3.901l-7.739-17.747h-0.065l-7.673 17.747h-3.997v-22.641zm30.917 0h14.803v2.493h-12.122v8.056h10.776v2.495h-10.776v7.103h11.543v2.494h-14.224v-22.641z" fill="#231f20"/>
		</g>
		<g transform="translate(113.05 31.272)">
			<path d="m0 0h6.747c4.189 0 8.823 1.342 8.823 6.33 0 2.975-2.202 5.31-5.113 5.562v0.07c2.432 0.727 3.966 2.489 3.966 5.114 0 4.159-3.774 5.565-7.514 5.565h-6.909v-22.641zm2.688 20.147h3.995c2.432 0 4.86-0.643 4.86-3.426 0-3.132-2.62-3.677-5.146-3.677h-3.709v7.103zm0-9.598h4.602c2.718 0 5.406-0.961 5.406-4.12 0-2.881-2.849-3.936-5.469-3.936h-4.539v8.056zm16.748-10.549h3.039l2.331 5.561h11.319l2.309-5.561h3.129l-9.624 22.641h-2.523l-9.98-22.641zm15.669 8.055h-9.24l4.699 11.133h0.065l4.476-11.133zm10.962-8.055h8.699c4.445 0 11.092 2.974 11.092 11.317 0 8.345-6.647 11.324-11.092 11.324h-8.699v-22.641zm2.686 20.147h5.115c5.182 0 9.116-2.625 9.116-8.83 0-6.204-3.934-8.824-9.116-8.824h-5.115v17.654zm42.587-7.481h-7.902v-2.495h5.217v-6.941c-1.665-0.831-3.804-1.31-5.627-1.31-5.566 0-9.37 3.996-9.37 9.397 0 5.501 3.935 9.404 9.109 9.404 2.308 0 4.639-0.928 6.173-2.592l2.014 2.112c-2.14 2.178-5.017 2.975-7.991 2.975-6.782 0-12.181-4.765-12.181-11.899 0-7.093 5.048-11.891 12.083-11.891 2.946 0 5.883 0.666 8.475 2.107v11.133zm7.544-12.666h14.8v2.493h-12.12v8.056h10.778v2.495h-10.778v7.103h11.544v2.494h-14.224v-22.641zm33.821 20.557c-1.663 1.955-3.805 2.659-6.328 2.659-3.966 0-7.71-2.177-7.71-6.522 0-3.781 2.429-5.185 5.626-6.237 4.029-1.349 5.916-1.83 5.916-4.607 0-2.587-2.623-3.93-4.922-3.93-1.952 0-3.869 0.862-4.829 2.526l-2.29-1.888c1.534-2.27 4.344-3.132 6.969-3.132 4.092 0 7.958 2.107 7.958 6.614 0 4.448-3.259 5.6-6.778 6.719-3.609 1.151-4.765 2.075-4.765 4.158 0 2.681 2.466 3.804 4.833 3.804 1.629 0 3.227-0.643 4.123-2.084l2.205 1.92z" fill="#c1272d"/>
		</g>
		<path d="m9.863 3.203h1.571v13.243h-1.571v-13.243zm12.351 0h1.572v10.997h0.037l7.67-10.997h1.983v13.243h-1.573v-11.002h-0.039l-7.666 11.002h-1.984v-13.243zm30.931 13.243h-10.325v-1.464h4.376v-11.779h1.57v11.779h4.379v1.464zm9.342-13.243h8.66v1.459h-7.09v4.713h6.306v1.459h-6.306v4.148h6.754v1.464h-8.324v-13.243zm18.583 0h1.57v5.948h2.021l3.589-5.948h1.93l-3.76 6.097c2.055 0.317 3.311 1.567 3.311 3.497 0 3.271-2.714 3.649-5.277 3.649h-3.384v-13.243zm1.57 11.779h2.21c1.529 0 3.193-0.279 3.193-2.185 0-2.187-2.26-2.187-4.001-2.187h-1.402v4.372zm17.35-11.779h1.57v10.997h0.036l7.671-10.997h1.983v13.243h-1.574v-11.002h-0.037l-7.666 11.002h-1.983v-13.243zm20.51 0h1.777l1.364 3.253h6.621l1.351-3.253h1.827l-5.627 13.243h-1.477l-5.83-13.243zm9.164 4.708h-5.404l2.75 6.513h0.035l2.619-6.513zm20.194 8.535h-10.324v-1.464h4.372v-11.779h1.577v11.779h4.375v1.464zm9.344-13.243h1.571v13.243h-1.571v-13.243zm18.503-0.336c4.021 0 6.918 2.95 6.918 6.955s-2.897 6.96-6.918 6.96c-4.022 0-6.92-2.955-6.92-6.96s2.898-6.955 6.92-6.955m0 1.454c-3.102 0-5.24 2.452-5.24 5.501 0 3.05 2.138 5.496 5.24 5.496 3.105 0 5.236-2.446 5.236-5.496 0-3.049-2.131-5.501-5.236-5.501m16.941-1.118h1.571v10.997h0.034l7.672-10.997h1.981v13.243h-1.57v-11.002h-0.038l-7.668 11.002h-1.982v-13.243zm20.513 0h1.776l1.361 3.253h6.624l1.348-3.253h1.833l-5.632 13.243h-1.474l-5.836-13.243zm9.165 4.708h-5.408l2.75 6.513h0.037l2.621-6.513zm13.024-4.708h7.632v1.459h-6.061v11.784h-1.571v-13.243z" fill="#231f20"/>
		<path d="m21.965 238.8c-10.676-13.5-2.564-32.667 18.181-48.994-12.521 13.773-16.102 28.299-7.518 39.153 9.975 12.615 34.73 16.896 61.753 12.995l6.397 3.067 4.728 1.845c-14.084 4.175-28.222 6.269-40.923 6.27-19.155 0.001-35.049-4.762-42.618-14.336" fill="url(#linearGradient42)"/>
		<path d="m48.715 170.56c0-44.53 36.096-80.625 80.622-80.625 44.532 0 80.632 36.095 80.632 80.625 0 44.531-36.1 80.63-80.632 80.63-44.526 0-80.622-36.099-80.622-80.63" fill="url(#linearGradient62)"/>
		<path d="m112.99 237.95c-13.299-13.271-5.585-42.558 17.235-65.421 22.813-22.852 52.084-30.624 65.38-17.356 13.31 13.281 8.153 45.135-14.662 67.99-14.554 14.579-32.782 21.976-47.523 21.977-8.37 0.001-15.614-2.383-20.43-7.19" fill="url(#linearGradient84)"/>
		<g transform="translate(120.96 151.25)">
			<path d="m0 0-10.746 0.011c-5.724 8.04-11.355 14.599-16.912 19.675-5.552 5.075-11.03 8.683-16.424 10.826-0.4 0.153-0.834 0.313-1.291 0.481-0.466 0.171-0.956 0.35-1.479 0.535 0.132-1.536 0.202-2.532 0.202-2.985l-0.029-28.496-9.887 0.01 0.042 42.465 8.75-0.008c3.319-1.091 6.601-2.513 9.832-4.265 3.23-1.743 6.363-3.731 9.408-5.948 3.043-2.219 5.985-4.641 8.829-7.272 2.843-2.634 5.557-5.377 8.14-8.234l1.822-2.024c-0.126 1.233-0.191 2.158-0.191 2.758l0.024 24.95 9.952-0.009-0.042-42.47" fill="#fff"/>
		</g>
		<g transform="translate(169.64 193.67)">
			<path d="m0 0c7.604-0.007 11.394-3.602 11.394-10.781-0.004-2.898-0.667-5.198-1.972-6.885-1.319-1.69-3.25-2.765-5.785-3.213 2.433-0.453 4.326-1.581 5.697-3.38 1.362-1.8 2.037-4.294 2.037-7.476-0.01-7.17-3.814-10.736-11.418-10.732l-44.121 0.043 0.042 42.467 44.126-0.043m-34.01-32.568 31.26-0.031c2.252-0.004 3.38 1.056 3.385 3.193 0 2.432-1.123 3.646-3.366 3.652l-24.067 0.02 0.005 8.979 24.062-0.023c2.252 0 3.379 1.223 3.384 3.673 0 2.117-1.122 3.171-3.384 3.171l-31.25 0.033-0.029-22.667z" fill="#fff"/>
		</g>
		<g transform="translate(195.29 185.26)">
			<path d="m0 0-10.15 0.006 0.015 8.392 10.148-0.009-0.013-8.389m-10.169-34.067 0.019 29.664 10.15-0.009-0.029-29.668l-10.14 0.013z" fill="#fff"/>
		</g>
		<path d="m228.91 123.18c-10.04-22.69-55.6-24.522-101.77-4.1-14.461 6.396-27.263 14.22-37.723 22.647 11.891-12.619 29.215-24.736 49.969-33.918 46.169-20.415 91.723-18.578 101.77 4.111 6.885 15.58-4.768 36.94-27.696 55.412 14.564-15.453 20.968-31.657 15.449-44.144" fill="url(#linearGradient126)"/>
	</g>
</svg>