<?xml version="1.0" encoding="utf-8"?>
<!-- Generator: Adobe Illustrator 15.1.0, SVG Export Plug-In . SVG Version: 6.00 Build 0)  -->
<!DOCTYPE svg PUBLIC "-//W3C//DTD SVG 1.1//EN" "http://www.w3.org/Graphics/SVG/1.1/DTD/svg11.dtd">
<svg version="1.1"
	 id="Layer_1" xmlns:rdf="http://www.w3.org/1999/02/22-rdf-syntax-ns#" xmlns:cc="http://creativecommons.org/ns#" xmlns:dc="http://purl.org/dc/elements/1.1/"
	 xmlns="http://www.w3.org/2000/svg" xmlns:xlink="http://www.w3.org/1999/xlink" x="0px" y="0px" width="612px" height="792px"
	 viewBox="0 0 612 792" enable-background="new 0 0 612 792" xml:space="preserve">
<g>
	<path fill="#231F20" d="M161.755,395.443h4.917v-34.435h0.119l24.006,34.435h6.209v-41.465h-4.917v34.437h-0.119l-24.01-34.437
		h-6.205V395.443L161.755,395.443z M206.016,395.443h5.566l4.272-10.185h20.732l4.218,10.185h5.736l-17.625-41.465h-4.626
		L206.016,395.443z M234.708,380.69h-16.917l8.602-20.389h0.123L234.708,380.69L234.708,380.69z M255.549,395.443h4.921V360.66
		h0.113l14.875,34.783h2.989l14.875-34.783h0.113v34.783h4.922v-41.465h-7.144l-14.173,32.503h-0.119l-14.053-32.503h-7.32V395.443
		L255.549,395.443z M312.169,395.443h27.111v-4.566h-22.201v-14.754h19.735v-4.57h-19.735v-13.009h21.141v-4.567h-26.051V395.443
		L312.169,395.443z"/>
	<path fill="#231F20" d="M161.419,439.33h2.877v-24.254h-2.877V439.33z M184.039,439.33h2.879v-20.141h0.068l14.047,20.141h3.632
		v-24.254h-2.881v20.15h-0.071l-14.04-20.15h-3.633V439.33L184.039,439.33z M240.687,415.076h-18.91v2.682h8.015v21.572h2.875
		v-21.572h8.02L240.687,415.076L240.687,415.076z M257.795,439.33h15.86v-2.672h-12.984v-8.633h11.549v-2.672h-11.549v-7.596h12.37
		v-2.682h-15.245L257.795,439.33L257.795,439.33z M291.829,439.33h2.875v-10.893h3.7l6.572,10.893h3.534l-6.885-11.166
		c3.763-0.58,6.063-2.869,6.063-6.404c0-5.99-4.97-6.684-9.662-6.684h-6.197V439.33L291.829,439.33z M294.704,417.758h4.047
		c2.799,0,5.846,0.51,5.846,4.002c0,4.004-4.138,4.004-7.326,4.004h-2.567V417.758z M326.477,439.33h2.876v-20.141h0.065
		l14.049,20.141h3.632v-24.254h-2.883v20.15h-0.067l-14.04-20.15h-3.632V439.33L326.477,439.33z M364.039,439.33h3.255l2.498-5.957
		h12.126l2.475,5.957h3.346l-10.306-24.254h-2.705L364.039,439.33L364.039,439.33z M380.823,430.707h-9.897l5.036-11.928h0.064
		L380.823,430.707z M417.808,415.076h-18.908v2.682h8.007v21.572h2.888v-21.572h8.013L417.808,415.076L417.808,415.076z
		 M434.92,439.33h2.877v-24.254h-2.877V439.33z M468.808,439.945c7.363,0,12.669-5.402,12.669-12.738
		c0-7.334-5.306-12.746-12.669-12.746c-7.366,0-12.674,5.412-12.674,12.746C456.134,434.543,461.441,439.945,468.808,439.945
		 M468.808,437.283c-5.682,0-9.597-4.492-9.597-10.076c0-5.586,3.915-10.064,9.597-10.064c5.686,0,9.589,4.479,9.589,10.064
		S474.493,437.283,468.808,437.283 M499.833,439.33h2.878v-20.141h0.062l14.051,20.141h3.629v-24.254h-2.876v20.15h-0.069
		l-14.044-20.15h-3.63V439.33L499.833,439.33z M537.402,439.33h3.253l2.492-5.957h12.132l2.469,5.957h3.357l-10.315-24.254h-2.699
		L537.402,439.33L537.402,439.33z M554.188,430.707h-9.904l5.036-11.928h0.068L554.188,430.707z M578.04,439.33h13.979v-2.672
		h-11.101v-21.582h-2.877L578.04,439.33L578.04,439.33z"/>
	<g>
		<path fill="#C1272D" d="M350.411,353.114h15.169c2.359,0,4.611,0.193,6.754,0.579c2.142,0.387,4.045,1.038,5.707,1.953
			c1.66,0.916,2.984,2.135,3.972,3.661c0.987,1.525,1.481,3.407,1.481,5.643c0,2.359-0.53,4.312-1.589,5.856
			c-1.061,1.546-2.42,2.766-4.082,3.661c-1.661,0.895-3.479,1.525-5.453,1.891c-1.976,0.366-3.854,0.55-5.635,0.55h-10.258v19.399
			h-6.066V353.114z M356.478,372.147h10.258c3.033,0,5.502-0.579,7.405-1.738c1.901-1.159,2.853-2.959,2.853-5.399
			c0-2.44-0.951-4.24-2.853-5.399c-1.903-1.159-4.372-1.739-7.405-1.739h-10.258V372.147z"/>
		<path fill="#C1272D" d="M393.245,353.114h6.067v38.435h23.404v4.758h-29.472V353.114z"/>
		<path fill="#C1272D" d="M445.977,353.114h5.706l21.743,43.192h-7.079l-5.201-10.615h-25.57l-5.273,10.615h-6.862L445.977,353.114z
			 M448.722,359.702h-0.146l-10.617,21.23h20.875L448.722,359.702z"/>
		<path fill="#C1272D" d="M514.527,357.872h-16.902v38.435h-6.068v-38.435h-16.903v-4.758h39.874V357.872z"/>
		<path fill="#C1272D" d="M521.678,353.114h32.145v4.758h-26.077v13.544h24.343v4.758h-24.343v15.375h27.377v4.758h-33.444V353.114z
			"/>
		<path fill="#C1272D" d="M588.783,360.739c-1.012-1.381-2.36-2.388-4.045-3.02c-1.688-0.63-3.444-0.945-5.273-0.945
			c-1.35,0-2.672,0.143-3.973,0.427c-1.301,0.285-2.469,0.712-3.504,1.282c-1.036,0.57-1.867,1.322-2.492,2.257
			c-0.627,0.936-0.938,2.035-0.938,3.294c0,0.976,0.181,1.841,0.542,2.593c0.361,0.753,0.949,1.434,1.77,2.044
			c0.817,0.609,1.926,1.179,3.322,1.708c1.396,0.529,3.106,1.059,5.129,1.586c1.974,0.529,3.888,1.099,5.743,1.708
			c1.853,0.61,3.49,1.383,4.911,2.318c1.42,0.936,2.552,2.104,3.396,3.508c0.842,1.403,1.265,3.162,1.265,5.277
			c0,2.157-0.506,4.026-1.518,5.613c-1.012,1.586-2.348,2.897-4.01,3.935c-1.66,1.037-3.575,1.81-5.741,2.319
			c-2.168,0.507-4.407,0.762-6.719,0.762c-1.493,0-2.987-0.113-4.479-0.336c-1.493-0.225-2.926-0.569-4.298-1.037
			c-1.373-0.466-2.662-1.077-3.865-1.83c-1.204-0.751-2.238-1.678-3.105-2.775l5.201-3.599c1.107,1.586,2.647,2.786,4.623,3.599
			c1.973,0.814,4.068,1.22,6.284,1.22c1.301,0,2.612-0.162,3.937-0.488c1.323-0.325,2.516-0.803,3.576-1.434
			c1.059-0.63,1.926-1.413,2.601-2.349c0.674-0.935,1.011-2.013,1.011-3.233c0-1.342-0.266-2.429-0.794-3.264
			c-0.531-0.833-1.35-1.556-2.456-2.166c-1.109-0.61-2.505-1.159-4.189-1.647c-1.687-0.487-3.661-1.057-5.924-1.708
			c-1.831-0.488-3.517-1.046-5.056-1.678c-1.543-0.63-2.88-1.403-4.009-2.318c-1.134-0.916-2.023-2.013-2.674-3.294
			c-0.65-1.281-0.976-2.816-0.976-4.605c0-2.075,0.481-3.884,1.445-5.431c0.962-1.545,2.263-2.837,3.901-3.874
			c1.636-1.037,3.49-1.82,5.562-2.349c2.069-0.528,4.236-0.793,6.501-0.793c2.89,0,5.526,0.377,7.91,1.128
			c2.384,0.753,4.515,2.065,6.393,3.936L588.783,360.739z"/>
	</g>
</g>
<g>
	<g>
		<path fill="#C1272C" d="M126.019,394.749v37.872c0,0-0.092,3.652-1.846,6.477c0.047-0.154-2.444,5.088-8.81,5.396
			c0,0.053-77.798-0.064-77.798-0.064s-4.152,0.039-6.781-4.816c-0.069-0.078-1.868-4.01-1.729-8.096c0,0.23,0-36.777,0-36.777"/>
		<path fill="#C1272C" d="M29.047,397.211v-37.872c0,0,0.092-3.649,1.845-6.477c-0.046,0.154,2.444-5.089,8.811-5.396
			c0-0.051,77.798,0.064,77.798,0.064s4.151-0.039,6.78,4.818c0.07,0.077,1.869,4.01,1.731,8.096c0-0.231,0,36.776,0,36.776"/>
	</g>
	<g>
		<path fill="#FFFFFF" d="M38.27,416.294v-35.403c0-3.426,2.265-5.921,5.92-5.921c4.121,0,6.037,3.133,7.372,5.921l9.982,20.835
			h0.059h0.116v-26.059h8.59v35.461c0,3.136-1.161,5.863-4.817,5.863c-3.599,0-5.107-2.205-7.023-6.094l-11.491-23.74l-0.116,0.117
			v29.02H38.27z"/>
		<path fill="#FFFFFF" d="M116.796,379.671c0,3.018-1.915,4.701-4.411,4.701c-2.495,0-4.41-1.684-4.41-4.701
			c0-3.019,1.915-4.701,4.41-4.701C114.881,374.97,116.796,376.652,116.796,379.671z"/>
		<path fill="#FFFFFF" d="M97.459,379.671c0-1.089,0.256-1.997,0.692-2.724c-2.119-1.249-4.66-1.978-7.531-1.978
			c-8.822,0-14.103,6.441-14.103,13.87v27.454h8.589V388.9c0-3.658,2.148-5.804,5.514-5.804c3.367,0,5.515,2.146,5.515,5.804
			c0,5.049-3.83,5.687-8.647,5.687v8.126h3.133c8.707,0,14.104-6.269,14.104-13.873c0-1.737-0.303-3.387-0.845-4.914
			c-0.601,0.283-1.275,0.446-2.011,0.446C99.373,384.372,97.459,382.688,97.459,379.671z"/>
		<rect x="108.671" y="388.088" fill="#FFFFFF" width="7.429" height="28.206"/>
	</g>
</g>
</svg>
